<?xml version="1.0" encoding="UTF-8"?>
<svg id="Capa_2" data-name="Capa 2" xmlns="http://www.w3.org/2000/svg" viewBox="0 0 551.43 183.33">
  <defs>
    <style>
      .cls-1 {
        fill-rule: evenodd;
      }

      .cls-1, .cls-2 {
        fill: #fff;
      }
    </style>
  </defs>
  <g id="Capa_1-2" data-name="Capa 1">
    <g>
      <g>
        <path class="cls-2" d="M222.66,39.28v3.42h-29.94v22.99h24.92v3.34h-24.92v23.71h29.94v3.42h-34.08v-56.87h34.08Z"/>
        <path class="cls-2" d="M271.65,46.2c-.24.46-.59.68-1.04.68-.35,0-.8-.25-1.35-.74s-1.3-1.04-2.24-1.65c-.94-.6-2.12-1.16-3.53-1.67-1.41-.51-3.15-.76-5.22-.76s-3.89.29-5.46.88c-1.57.59-2.89,1.39-3.95,2.41-1.06,1.02-1.87,2.2-2.42,3.54s-.83,2.75-.83,4.22c0,1.93.41,3.52,1.23,4.78.82,1.26,1.9,2.33,3.24,3.21,1.34.88,2.86,1.63,4.57,2.23,1.7.6,3.45,1.2,5.25,1.79,1.8.59,3.55,1.24,5.25,1.95s3.23,1.6,4.57,2.67c1.34,1.07,2.42,2.39,3.24,3.96s1.23,3.52,1.23,5.85-.41,4.63-1.23,6.73c-.82,2.1-2,3.93-3.56,5.49-1.55,1.55-3.46,2.78-5.71,3.68-2.25.9-4.82,1.35-7.72,1.35-3.75,0-6.98-.66-9.68-1.99-2.71-1.33-5.08-3.14-7.11-5.45l1.12-1.77c.32-.4.7-.6,1.12-.6.24,0,.55.16.93.48.38.32.83.72,1.37,1.19.54.47,1.18.98,1.93,1.53.75.55,1.62,1.06,2.62,1.53.99.47,2.13.86,3.42,1.19s2.75.48,4.39.48c2.25,0,4.27-.34,6.04-1.03,1.77-.68,3.27-1.61,4.49-2.79,1.22-1.18,2.15-2.58,2.8-4.2.64-1.62.97-3.36.97-5.2,0-2.01-.41-3.66-1.23-4.96-.82-1.3-1.9-2.38-3.24-3.25-1.34-.87-2.86-1.6-4.57-2.19-1.7-.59-3.46-1.17-5.25-1.73-1.8-.56-3.55-1.19-5.25-1.89-1.7-.7-3.23-1.59-4.57-2.67s-2.42-2.44-3.24-4.06-1.23-3.65-1.23-6.09c0-1.9.36-3.74,1.09-5.5.72-1.77,1.78-3.33,3.18-4.68,1.39-1.35,3.12-2.44,5.17-3.25,2.05-.82,4.39-1.23,7.02-1.23,2.95,0,5.6.47,7.95,1.41,2.35.94,4.49,2.37,6.42,4.3l-.96,1.85Z"/>
        <path class="cls-2" d="M331.29,39.28v3.5h-19.97v53.37h-4.1v-53.37h-20.09v-3.5h44.17Z"/>
        <path class="cls-2" d="M370.19,93.22c2.73,0,5.18-.48,7.33-1.43,2.16-.95,3.99-2.27,5.49-3.96,1.5-1.69,2.65-3.68,3.44-5.97.79-2.29,1.19-4.76,1.19-7.42v-35.16h4.1v35.16c0,3.13-.5,6.06-1.49,8.78-.99,2.72-2.42,5.09-4.28,7.11-1.86,2.02-4.13,3.61-6.79,4.76s-5.66,1.73-8.98,1.73-6.32-.58-8.98-1.73c-2.67-1.15-4.93-2.74-6.79-4.76-1.86-2.02-3.29-4.39-4.28-7.11-.99-2.72-1.49-5.65-1.49-8.78v-35.16h4.14v35.12c0,2.65.4,5.12,1.19,7.41.79,2.29,1.93,4.28,3.42,5.97,1.49,1.69,3.31,3.01,5.47,3.98,2.16.96,4.6,1.45,7.33,1.45Z"/>
        <path class="cls-2" d="M464.02,67.7c0,4.39-.66,8.35-1.97,11.85-1.31,3.51-3.16,6.5-5.55,8.96-2.38,2.47-5.24,4.35-8.56,5.67-3.32,1.31-7.01,1.97-11.05,1.97h-20.74v-56.87h20.74c4.04,0,7.73.66,11.05,1.97,3.32,1.31,6.17,3.2,8.56,5.67,2.38,2.47,4.23,5.45,5.55,8.96,1.31,3.51,1.97,7.45,1.97,11.82ZM459.76,67.7c0-3.96-.55-7.5-1.65-10.61-1.1-3.11-2.65-5.73-4.64-7.88-2-2.14-4.4-3.78-7.21-4.9-2.81-1.12-5.93-1.69-9.36-1.69h-16.6v50.19h16.6c3.43,0,6.55-.56,9.36-1.69,2.81-1.12,5.22-2.76,7.21-4.9,2-2.14,3.54-4.77,4.64-7.88,1.1-3.11,1.65-6.66,1.65-10.65Z"/>
        <path class="cls-2" d="M490.91,96.15h-4.14v-56.87h4.14v56.87Z"/>
        <path class="cls-2" d="M551.43,39.28v3.42h-29.94v22.99h24.92v3.34h-24.92v23.71h29.94v3.42h-34.08v-56.87h34.08Z"/>
        <path class="cls-2" d="M206.84,116.22v4.82h-11.09v6.31h8.5v4.64h-8.5v6.44h11.09v4.82h-17.4v-27.02h17.4Z"/>
        <path class="cls-2" d="M220.32,116.26c.19.03.35.07.5.14.15.07.29.16.43.29s.29.29.46.5l12.83,16.23c-.05-.52-.09-1.02-.11-1.51s-.04-.95-.04-1.38v-14.3h5.53v27.02h-3.26c-.48,0-.89-.07-1.22-.22s-.66-.42-.96-.82l-12.74-16.1c.04.47.07.93.09,1.38.02.45.04.88.04,1.27v14.49h-5.53v-27.02h3.3c.27,0,.5.01.69.04Z"/>
        <path class="cls-2" d="M280.81,116.22v4.82h-11.09v6.31h8.49v4.64h-8.49v6.44h11.09v4.82h-17.4v-27.02h17.4Z"/>
        <path class="cls-2" d="M296.57,138.24h10.02v5.01h-16.29v-27.02h6.27v22.02Z"/>
        <path class="cls-2" d="M345.98,116.22v4.82h-11.09v6.31h8.49v4.64h-8.49v6.44h11.09v4.82h-17.4v-27.02h17.4Z"/>
        <path class="cls-2" d="M362.14,129.35l-8.37-13.13h6.27c.41,0,.71.05.9.16.19.1.36.28.51.53l5.38,9.11c.06-.16.13-.31.21-.46.08-.15.17-.3.27-.46l4.71-8.09c.31-.52.73-.78,1.26-.78h6.01l-8.48,12.85,8.66,14.17h-6.27c-.41,0-.74-.1-.99-.3-.25-.2-.46-.43-.6-.71l-5.42-9.46c-.1.27-.21.51-.33.71l-5.05,8.75c-.15.26-.35.49-.59.7-.25.2-.56.31-.93.31h-5.86l8.7-13.89Z"/>
        <path class="cls-2" d="M407.45,116.22v4.97h-7.61v22.05h-6.27v-22.05h-7.6v-4.97h21.48Z"/>
        <path class="cls-2" d="M433.38,116.22v4.82h-11.09v6.31h8.5v4.64h-8.5v6.44h11.09v4.82h-17.4v-27.02h17.4Z"/>
        <path class="cls-2" d="M449.15,133.25v10h-6.27v-27.02h8.79c1.95,0,3.62.2,5,.6,1.38.4,2.5.96,3.38,1.68.87.72,1.5,1.56,1.9,2.54.4.98.59,2.04.59,3.19,0,.88-.12,1.71-.35,2.49-.24.78-.58,1.5-1.05,2.16-.46.66-1.03,1.25-1.71,1.77s-1.45.95-2.33,1.28c.42.21.81.47,1.18.78.36.31.68.69.96,1.13l5.75,9.4h-5.68c-1.05,0-1.81-.4-2.26-1.19l-4.49-7.85c-.2-.35-.43-.59-.7-.74s-.64-.22-1.12-.22h-1.59ZM449.15,128.93h2.52c.85,0,1.58-.11,2.18-.32.6-.22,1.09-.52,1.47-.9s.66-.83.83-1.34c.17-.51.26-1.07.26-1.66,0-1.19-.39-2.11-1.16-2.78-.77-.67-1.97-1-3.59-1h-2.52v8.01Z"/>
        <path class="cls-2" d="M480.34,143.24h-6.31v-27.02h6.31v27.02Z"/>
        <path class="cls-2" d="M517.96,129.72c0,1.95-.34,3.77-1.01,5.45s-1.62,3.14-2.85,4.39c-1.22,1.24-2.7,2.22-4.42,2.92-1.73.71-3.64,1.06-5.74,1.06s-4.02-.35-5.75-1.06c-1.73-.7-3.21-1.68-4.44-2.92-1.23-1.24-2.18-2.71-2.86-4.39-.67-1.68-1.01-3.5-1.01-5.45s.34-3.77,1.01-5.45c.67-1.68,1.62-3.14,2.86-4.38,1.23-1.24,2.71-2.21,4.44-2.91s3.65-1.06,5.75-1.06,4.02.36,5.74,1.07c1.72.71,3.2,1.69,4.42,2.92,1.22,1.24,2.17,2.7,2.85,4.38s1.01,3.49,1.01,5.43ZM511.54,129.72c0-1.33-.17-2.54-.52-3.61-.35-1.07-.84-1.98-1.49-2.72-.65-.74-1.44-1.31-2.38-1.71s-2.01-.59-3.21-.59-2.29.2-3.24.59c-.95.4-1.74.96-2.39,1.71-.65.74-1.15,1.65-1.49,2.72-.35,1.07-.52,2.27-.52,3.61s.17,2.56.52,3.63c.35,1.07.84,1.98,1.49,2.72.65.74,1.45,1.31,2.39,1.7.95.39,2.02.58,3.24.58s2.27-.2,3.21-.58c.94-.39,1.73-.96,2.38-1.7.65-.74,1.15-1.65,1.49-2.72.35-1.07.52-2.28.52-3.63Z"/>
        <path class="cls-2" d="M533.17,133.25v10h-6.27v-27.02h8.79c1.95,0,3.62.2,5,.6,1.38.4,2.5.96,3.38,1.68.87.72,1.51,1.56,1.9,2.54.4.98.59,2.04.59,3.19,0,.88-.12,1.71-.35,2.49-.24.78-.58,1.5-1.05,2.16s-1.03,1.25-1.71,1.77-1.45.95-2.33,1.28c.42.21.81.47,1.18.78.36.31.68.69.96,1.13l5.75,9.4h-5.68c-1.05,0-1.81-.4-2.26-1.19l-4.49-7.85c-.2-.35-.43-.59-.7-.74s-.64-.22-1.12-.22h-1.59ZM533.17,128.93h2.52c.85,0,1.58-.11,2.18-.32.6-.22,1.09-.52,1.47-.9.38-.38.66-.83.83-1.34s.26-1.07.26-1.66c0-1.19-.39-2.11-1.16-2.78s-1.97-1-3.59-1h-2.52v8.01Z"/>
      </g>
      <g>
        <path class="cls-1" d="M126.93,103.31c0,21.22-7.43,40.46-19.48,54.46,16.69-12.32,27.51-32.13,27.51-54.46s-10.83-42.14-27.51-54.46c12.04,14.01,19.48,33.24,19.48,54.46h0ZM43.53,103.31c0,21.22,7.43,40.46,19.48,54.46-16.69-12.32-27.51-32.13-27.51-54.46s10.83-42.14,27.51-54.46c-12.04,14.01-19.48,33.24-19.48,54.46h0Z"/>
        <path class="cls-1" d="M49.6,101.02c72.46-14.28,142.45,6.24,89.86,18.2,32.15-14.62-32.77-20.24-89.86-18.2h0Z"/>
        <path class="cls-1" d="M25.63,78.32c79.45-22.02,166.25-5.09,108.73,12.67,34.55-18.98-45.35-19.76-108.73-12.67h0Z"/>
        <path class="cls-1" d="M85.23,157.77c-1.8,0-3.25-25.2-3.25-56.27s1.46-56.27,3.25-56.27,3.25,25.2,3.25,56.27-1.46,56.27-3.25,56.27h0Z"/>
        <path class="cls-1" d="M16.02,122.91c-1.18-4.85-1.5-9.96-1.5-15.15,0-42.3,34.31-76.61,76.61-76.61,3.54,0,7.02.24,10.42.7-6.22-1.59-12.74-2.44-19.46-2.44C38.83,29.41,3.75,64.5,3.75,107.76c0,61.56,67.77,96.89,117.47,61.49,21.35-15.2,39.06-39.02-1.36-44.78-23.13-3.3-57.1-3.16-91.49,4.04,27.9-1.32,57.5-1.03,78.95,1.13,14.64,1.47,38.63,3.16,17.68,24.28-34.59,34.86-96.06,22.29-108.98-31h0Z"/>
        <path class="cls-1" d="M25.76,32.04l3.58,11.96c14.22-11.85,32.5-18.98,52.45-18.98,2.88,0,5.75.15,8.61.45l-2.42-8.1c-9.46-3.25-18.16-3.95-29.74-3.1,10.05-2.25,18.31-2.8,28.66-.52L108.67,0l-58.88,1.08L0,32.51c34.78-.64-1.5.03,25.76-.47h0Z"/>
      </g>
    </g>
  </g>
</svg>