<?xml version="1.0" encoding="UTF-8"?>
<svg id="Layer_2" data-name="Layer 2" xmlns="http://www.w3.org/2000/svg" viewBox="0 0 382 130">
  <defs>
    <style>
      .cls-1 {
        fill: #fff;
      }
    </style>
  </defs>
  <g id="Layer_1-2" data-name="Layer 1">
    <g>
      <path class="cls-1" d="M382,33l-286.89-.51,3.46-2.54c92.58,1.89,185.45-2.32,277.99,0,1.7.04,2.93.32,4.43,1.06l1.01-8v10Z"/>
      <path class="cls-1" d="M382,13l-319.35.02c-21.99,1.96-40.52,17.67-46,38.99.02-12.51,10.88-26.31,21.17-32.83,3.8-2.41,16.78-8.18,20.81-8.18h322.37l1-11v13Z"/>
      <path class="cls-1" d="M.16,57c.49-4.4,3.13-13.38,4.82-17.68,2.29-5.84,6.52-13.05,11.17-17.32-2.9,6.15-7.05,11.57-9.47,18.01-28.66,76.19,79.36,123.65,117.3,52.34l5.13-12.35c-2.81,19.58-19.84,37.39-37.62,44.85-4.51,1.89-12.68,4.64-17.35,5.14h-15.99c-23.5-4.25-44.38-18.62-53.16-41.32-2.23-5.77-2.99-11.82-4.82-17.68.36-4.5-.49-9.6,0-14Z"/>
      <path class="cls-1" d="M80.07,43.04c.28.22.29,2.38,1.01,3.24,5.73,6.85,10.34,10.08,9.48,20.89-.19,2.34-2.68,6.56-2.43,6.83.31.35,2.42-.78,1.99,1-3.77-.16-3.07,3.44-3.36,3.77-6.54,7.68-15.91,11.66-26.06,9.66-4.61-.91-6.3-3.07-9.57-5.73-1.09-.89-3.33-1.96-4.64-3.9-.73-1.07.58-3.73-4.35-4.3l3-.5c-3.29-4.13-2.88-10.44-1.87-15.37,1.56-7.62,10.4-16.63,18.5-17.49,7.96-.84,8.84.36,15.37,2.43,1.27.4,2.82-.61,2.94-.52Z"/>
      <path class="cls-1" d="M136.1,92v-55h21.49c3.05,0,14.64,6.5,17.03,8.97,9.21,9.52,8.42,27.22-.11,36.96-2.65,3.03-12.19,9.07-15.92,9.07h-22.49ZM146.1,84c17.78,1.95,30.11-11.19,23.03-28.54-3.78-9.25-14.12-10.24-23.03-10.46v39Z"/>
      <path class="cls-1" d="M262.05,92h-10v-24.5c0-.26-2.29-4.34-2.48-4.51-3.48-3.13-10.51.44-10.51,4.51v24.5h-10v-24.5c0-8.21-12.99-6.52-12.99,1v23.5h-10v-36c4.14.38,8.84-1.78,10.49,3,6.87-6.31,14.25-4.54,20.86.93,5.29-6.21,17.57-7.05,22.09.11.85,1.34,2.54,7.23,2.54,8.46v23.5Z"/>
      <path class="cls-1" d="M353.01,38v33c3.11-1.86,10.95-13.51,12.99-14.51,2.93-1.44,8.63,0,12-.49-.09,4.75-15.46,13.4-14.92,16.36l16.93,19.62c-3.57-.53-9.95,1.02-13-.48-2.75-1.35-10.19-14.26-13.98-16.51v17c-3.29-.37-7.62,1.24-10-1.5v-52.5h10Z"/>
      <path class="cls-1" d="M306.03,92l-8.94-.09-.06-2.92c-8.6,6.51-20.79,5.79-26.82-3.66-9.81-15.37,2.51-35.34,21.03-29.03,3.28,1.12,5.44,5.71,6.35-.37l6.8.22,1.65,1.34v34.5ZM294.69,65.34c-8.1-8.01-23.86,2.03-16.84,15.35,7.52,14.28,29.43-2.9,16.84-15.35Z"/>
      <path class="cls-1" d="M314.03,56l8.45-.07,1.05,3.08c4.87-2.81,9.68-5.68,15.36-2.89l-.89,7.88c-4.89-1.9-9.81-2-12.56,2.92-.47.83-2.43,6.1-2.43,6.57v18.5h-9v-36Z"/>
      <rect class="cls-1" x="188.08" y="56" width="9" height="36"/>
      <path class="cls-1" d="M107.12,72.01c2.02-.03.82,4.01.55,5.05-2.85,10.86-13.06,22.21-23.19,26.8C41.69,123.23,2.65,72.06,33.13,37c-1.07,3.7-3.8,6.56-5.28,10.21-16.09,39.7,28.36,75.62,63.17,50.2,7.97-5.82,15.01-15.38,16.09-25.4Z"/>
      <path class="cls-1" d="M93.13,83c6.41-12.9,7.46-26.75-2.03-38.48-18.4-22.73-56.27-10.75-56.96,18.47-2.11-.56-.85-5.6-.54-7.05,3.98-18.83,24.07-29.78,42.34-24.25,21.31,6.46,32.78,33.71,17.2,51.3Z"/>
      <path class="cls-1" d="M159.09,111.01c-.32-.31-11.73.84-7.99-2h10.99c-.54,12.47-16.96,16.09-24.52,7.03-11.51-13.8,11.15-27.21,22.5-15.53-1.89,2.75-4.69-1.11-7.15-1.82-9.21-2.67-19.04,4.29-15.07,14.07,3.56,8.76,20.28,8.49,21.23-1.74Z"/>
      <path class="cls-1" d="M246.06,121.5c-1.53,7.15-16.82,7.83-18.99.51,2.59-.19,2.88,2.46,5.51,2.97,6.67,1.28,11.96-.43,11.47-7.98-23.84,13.58-22.62-25.04,0-10.99l2.01-3.01c-.78,5.38,1.06,13.54,0,18.5ZM235.8,104.21c-3.53.35-8.15,4.37-7.58,8.07,1.89,5.56,6.48,7.05,11.9,5.28,7.06-2.31,4.18-14.18-4.32-13.35Z"/>
      <path class="cls-1" d="M286.04,120v-23c9.2-.62,21.1-.59,21.07,11.5-.03,13.27-11.15,11.74-21.07,11.5ZM288.04,118c23.28,4.01,22.89-22.98,0-19v19Z"/>
      <path class="cls-1" d="M111.8,37.31c11.23,13.77,8.56,47.19-5.67,58.69,2.03-4.8,5.11-8.41,7.01-13.48,5.13-13.74,4.48-26.4-1.17-39.88-1.1-2.63-4.09-5.6-3.36-7.64.69,1.1,2.54,1.5,3.19,2.3Z"/>
      <path class="cls-1" d="M270.05,112h-16.99c.13,7.82,11.26,9.66,14.01,3.02l1.97,1.47c-5.49,7.66-18.07,5-18.08-4.99,0-12.34,19.73-11.59,19.08.5ZM268.05,110c-2.13-7.75-12.7-7.62-14.99,0h14.99Z"/>
      <path class="cls-1" d="M186.08,120c-2.47,1.26-1.8-2.03-2.51-2.06-2.83-.1-4.56,4.14-10.5,2.6-15.59-4.04-2.48-26.88,9.52-14.56l1.52-2.98c.39-.27,1.98,1.32,1.98,1.5v15.5ZM174.84,104.17c-10.78,1.77-7.82,17.11,3.51,14.63,9.84-2.15,5.03-16.04-3.51-14.63Z"/>
      <path class="cls-1" d="M221.07,120c-2.6.5-1.54-.51-2.48-2.01-22.64,12.52-21.5-26.37.47-11.99l2.01-3.01v17ZM217.81,116.75c5.18-5.52-2.12-16.37-10.65-11.15-9.8,6,3.25,19.03,10.65,11.15Z"/>
      <path class="cls-1" d="M321.52,102.51c15.7.11,10.35,23.33-4.07,17.56-9.65-3.86-6.7-17.63,4.07-17.56ZM316.33,117.69c6.75,4.87,17.18-3.47,11.15-10.65-7.61-9.06-19.33,4.75-11.15,10.65Z"/>
      <path class="cls-1" d="M340.72,103.21c17.33-5.1,18.69,19.63,3.06,17.61-9.76-1.26-11.12-15.24-3.06-17.61ZM350.7,106.32c-7.52-6.89-18.42,4.59-10.65,11.14,7.11,6,17.93-4.47,10.65-11.14Z"/>
      <path class="cls-1" d="M196.83,44.76c-3.1,3.09-12.28.98-9.23-5.74,3.3-7.28,14.64.35,9.23,5.74Z"/>
      <path class="cls-1" d="M380,104.01c-1.48,3.94-5.46-2.21-8.06,1.62-.96,5.42,6.19,5.09,7.58,7.36,3.15,5.14-4.29,10.23-9.51,6.51l.5-2.48c2.68,3.75,9.98,1.8,7.01-3.04-1.25-2.03-9.95-3.25-7.04-8.99,1.68-3.32,6.69-1.82,9.52-.98Z"/>
      <path class="cls-1" d="M359.01,103l2.05,1.96c.54.34,5.85-5.25,6.95-.97-4.8.04-6.26,2.21-6.9,6.61-.4,2.75,1.47,10.1-2.09,9.4v-17Z"/>
      <path class="cls-1" d="M191.08,103l2.03,1.98c.98-1.44,6.95-3.13,6.98-1.48-9.59,1.74-6.15,8.23-7,15.02-.23,1.83.33,1.61-2,1.48v-17Z"/>
    </g>
  </g>
</svg>