<?xml version="1.0" encoding="UTF-8"?>
<svg id="Layer_2" data-name="Layer 2" xmlns="http://www.w3.org/2000/svg" viewBox="0 0 409.27 145.02">
  <defs>
    <style>
      .cls-1, .cls-2 {
        fill: #fff;
      }

      .cls-2 {
        stroke: #010101;
        stroke-miterlimit: 10;
      }
    </style>
  </defs>
  <g id="Layer_1-2" data-name="Layer 1">
    <g id="Layer_2-2" data-name="Layer 2">
      <g id="Layer_1-2" data-name="Layer 1-2">
        <rect class="cls-1" x="80.1" width="36.81" height="36.81"/>
        <rect class="cls-1" x="116.92" y="36.81" width="36.81" height="36.81"/>
        <rect class="cls-1" x="80.1" y="73.63" width="36.81" height="36.81"/>
        <path class="cls-1" d="M22.5,43.7c-.76-1-1.76-1.79-2.91-2.3-1.12-.52-2.35-.8-3.59-.81-1.43-.02-2.85.27-4.16.86-1.21.56-2.3,1.36-3.18,2.36-.88,1.03-1.56,2.22-2,3.51-.49,1.38-.73,2.84-.72,4.31,0,1.38.22,2.76.68,4.06.44,1.24,1.12,2.39,2,3.37.88.99,1.97,1.77,3.18,2.3,1.33.57,2.76.86,4.2.84,1.43.02,2.84-.33,4.1-1,1.19-.65,2.22-1.57,3-2.68l3.1,2.34c-.33.42-.69.83-1.07,1.2-.6.6-1.27,1.13-2,1.58-.98.59-2.03,1.07-3.13,1.41-1.33.42-2.72.62-4.12.6-2,.03-3.98-.39-5.8-1.23-3.32-1.54-5.9-4.31-7.2-7.72-.62-1.62-.94-3.34-.95-5.07-.03-1.98.31-3.95,1-5.81.65-1.71,1.63-3.27,2.89-4.6,1.26-1.3,2.78-2.33,4.47-3,1.82-.74,3.77-1.1,5.74-1.08,1.8,0,3.59.33,5.27,1,1.68.65,3.14,1.75,4.24,3.18l-3.04,2.38Z"/>
        <path class="cls-1" d="M30,36h3.45v29h-3.45v-29Z"/>
        <path class="cls-1" d="M42.35,37.83h4.9l-5.71,5.52h-3.18l3.99-5.52ZM39.17,46.83h3.44v18.17h-3.44v-18.17Z"/>
        <path class="cls-1" d="M48.09,46.8h3.45v2.8h.08c.47-1.01,1.27-1.84,2.26-2.36,1.14-.62,2.42-.93,3.71-.9.85,0,1.7.13,2.51.4.79.26,1.51.69,2.11,1.26.63.61,1.12,1.34,1.44,2.16.38,1,.56,2.06.53,3.12v11.72h-3.44v-10.77c.02-.74-.1-1.47-.35-2.16-.2-.55-.51-1.05-.92-1.46-.37-.37-.82-.64-1.32-.8-.5-.17-1.02-.25-1.55-.25-.68,0-1.36.11-2,.34-.61.24-1.16.61-1.6,1.1-.49.55-.86,1.2-1.08,1.9-.27.88-.4,1.8-.38,2.72v9.38h-3.45v-18.2Z"/>
        <path class="cls-1" d="M68.86,40.29c0-1.4,1.11-2.54,2.51-2.55,1.4,0,2.54,1.11,2.55,2.51,0,.68-.27,1.34-.75,1.82-.99.98-2.59.98-3.58-.02-.46-.47-.73-1.1-.73-1.76ZM69.66,46.8h3.45v18.2h-3.45v-18.2Z"/>
        <path class="cls-1" d="M91.58,51.63c-.57-.62-1.25-1.13-2-1.52-.79-.36-1.65-.53-2.51-.51-.85-.02-1.7.15-2.47.51-.69.34-1.29.82-1.77,1.42-.48.62-.84,1.32-1.07,2.07-.24.78-.37,1.59-.37,2.4,0,.82.14,1.63.42,2.4.26.74.66,1.42,1.19,2,.51.56,1.14,1.01,1.83,1.32.76.33,1.59.49,2.42.48.86.03,1.71-.15,2.49-.52.73-.37,1.38-.89,1.91-1.51l2.46,2.45c-.84.96-1.91,1.7-3.11,2.15-1.21.44-2.48.66-3.77.65-1.32.02-2.62-.22-3.85-.69-1.12-.44-2.14-1.1-3-1.94-.85-.85-1.52-1.87-1.95-3-.92-2.49-.92-5.23,0-7.72.85-2.29,2.64-4.11,4.92-5,1.24-.49,2.56-.73,3.89-.71,1.3,0,2.6.23,3.81.71,1.21.47,2.29,1.2,3.16,2.16l-2.63,2.4Z"/>
        <path class="cls-1" d="M97.13,49c.98-.89,2.12-1.57,3.37-2,1.23-.44,2.53-.67,3.84-.67,1.16-.02,2.32.15,3.42.5.87.28,1.67.74,2.36,1.34.59.53,1.06,1.19,1.36,1.93.29.73.44,1.5.44,2.28v11.04c0,.54.06,1,.11,1.53h-3.03c-.08-.92-.12-1.84-.12-2.76h-.07c-.65,1.07-1.6,1.94-2.72,2.49-1.14.51-2.39.76-3.64.73-.82,0-1.63-.12-2.42-.35-.72-.21-1.4-.54-2-1-.57-.46-1.04-1.05-1.36-1.71-.76-1.73-.64-3.72.33-5.35.55-.81,1.29-1.48,2.15-1.94.98-.52,2.04-.87,3.14-1.06,1.28-.22,2.58-.33,3.88-.32h2.53v-.77c0-.47-.09-.94-.27-1.38-.18-.47-.45-.89-.8-1.25-.38-.38-.84-.68-1.34-.88-.61-.22-1.27-.33-1.92-.32-.59,0-1.17.05-1.74.19-.47.12-.92.28-1.36.48-.39.18-.77.4-1.11.67l-1,.73-2.03-2.15ZM106.86,56.2c-.84,0-1.68.05-2.51.14-.79.08-1.58.25-2.33.51-.66.25-1.25.64-1.73,1.15-.45.47-.69,1.11-.67,1.76-.07.88.33,1.74,1.06,2.24.86.5,1.85.74,2.85.69.83.02,1.65-.14,2.41-.48.62-.29,1.17-.71,1.61-1.24.41-.5.71-1.08.88-1.71.18-.6.27-1.23.27-1.86v-1.18l-1.84-.02Z"/>
        <path class="cls-1" d="M124.38,83.2h9.54c1.46-.05,2.92.19,4.29.71,1.01.39,1.93,1.01,2.67,1.8.63.71,1.1,1.55,1.36,2.46.51,1.71.51,3.54,0,5.25-.26.91-.73,1.75-1.36,2.45-.74.79-1.66,1.41-2.67,1.8-1.37.52-2.83.76-4.29.71h-5.86v12h-3.68v-27.18ZM128.06,95.2h4.83c.71,0,1.41-.07,2.11-.2.66-.1,1.29-.32,1.88-.63.56-.32,1.02-.8,1.33-1.37.67-1.42.67-3.06,0-4.48-.31-.56-.76-1.01-1.32-1.32-.58-.32-1.22-.54-1.88-.64-.7-.11-1.41-.17-2.12-.17h-4.83v8.81Z"/>
        <path class="cls-1" d="M145.69,85.65c0-1.4,1.13-2.55,2.53-2.55,1.4,0,2.55,1.13,2.55,2.53,0,1.4-1.13,2.55-2.53,2.55-.67,0-1.32-.26-1.8-.74-.49-.47-.76-1.12-.75-1.79ZM146.5,92.17h3.5v18.17h-3.5v-18.17Z"/>
        <path class="cls-1" d="M158,102.52c0,.76.17,1.5.52,2.17.34.64.8,1.21,1.36,1.67.6.48,1.27.84,2,1.07.74.26,1.52.38,2.3.38.98.02,1.95-.24,2.8-.74.83-.54,1.57-1.22,2.18-2l2.61,2c-1.91,2.46-4.89,3.84-8,3.71-1.33.02-2.65-.23-3.89-.72-1.13-.44-2.15-1.13-3-2-.81-.86-1.44-1.89-1.85-3-.45-1.21-.67-2.48-.66-3.77-.01-1.29.23-2.58.71-3.78.47-1.12,1.15-2.14,2-3,.86-.86,1.88-1.54,3-2,1.19-.49,2.47-.74,3.76-.73,1.41-.05,2.81.25,4.08.85,1.06.52,2,1.27,2.74,2.2.72.91,1.24,1.95,1.55,3.07.32,1.13.48,2.3.48,3.47v1.22l-14.69-.07ZM168.89,99.76c-.02-.72-.14-1.43-.36-2.11-.22-.62-.56-1.18-1-1.66-.42-.48-.95-.86-1.53-1.12-.73-.28-1.5-.41-2.28-.4-.8,0-1.59.15-2.32.48-.67.3-1.27.72-1.78,1.25-.48.49-.86,1.07-1.13,1.7-.26.59-.4,1.22-.41,1.86h10.81Z"/>
        <path class="cls-1" d="M195,110.34h-3.5v-2.6h-.07c-.69.99-1.64,1.77-2.75,2.26-1.12.53-2.34.8-3.58.8-1.31.02-2.6-.22-3.81-.72-1.1-.46-2.1-1.14-2.92-2-.81-.87-1.44-1.89-1.86-3-.44-1.2-.66-2.47-.65-3.75-.01-1.29.21-2.57.65-3.78.42-1.11,1.05-2.13,1.86-3,.83-.86,1.82-1.54,2.92-2,1.21-.5,2.5-.75,3.81-.73,1.27,0,2.53.28,3.68.83,1.08.48,1.99,1.26,2.65,2.24h.07v-13.53h3.5v28.98ZM185.57,107.58c.85.01,1.7-.15,2.49-.48.71-.29,1.36-.73,1.88-1.3.53-.58.93-1.26,1.19-2,.56-1.65.56-3.45,0-5.1-.25-.74-.66-1.42-1.19-2-.55-.57-1.21-1.01-1.94-1.29-1.6-.65-3.4-.65-5,0-.71.3-1.35.75-1.88,1.31-.53.58-.94,1.26-1.19,2-.56,1.65-.56,3.45,0,5.1.26.74.66,1.42,1.19,2,.53.56,1.17,1.01,1.88,1.3.8.33,1.66.48,2.52.46h.05Z"/>
        <path class="cls-1" d="M202.77,102.52c0,.76.17,1.5.52,2.17.34.64.8,1.21,1.36,1.67.6.48,1.27.84,2,1.07.74.26,1.52.39,2.3.38.98.02,1.95-.24,2.8-.74.83-.54,1.57-1.22,2.18-2l2.61,2c-1.92,2.47-4.92,3.86-8.05,3.71-1.33.02-2.65-.23-3.89-.72-1.13-.44-2.15-1.13-3-2-.81-.87-1.44-1.89-1.86-3-.44-1.21-.66-2.48-.65-3.77-.01-1.29.23-2.58.71-3.78.47-1.12,1.15-2.14,2-3,.86-.86,1.88-1.54,3-2,1.19-.49,2.47-.74,3.76-.73,1.41-.05,2.81.25,4.08.85,1.06.52,2,1.27,2.74,2.2.71.91,1.24,1.95,1.55,3.07.32,1.13.48,2.3.48,3.47v1.22l-14.64-.07ZM213.66,99.76c-.02-.72-.14-1.43-.36-2.11-.22-.62-.56-1.18-1-1.66-.45-.49-1.01-.87-1.63-1.12-.73-.28-1.5-.41-2.28-.4-.8,0-1.59.15-2.32.48-.67.3-1.27.72-1.78,1.25-.48.49-.86,1.07-1.13,1.7-.26.59-.4,1.22-.41,1.86h10.91Z"/>
        <path class="cls-1" d="M234.48,97c-.57-.62-1.25-1.13-2-1.51-.78-.35-1.63-.52-2.48-.49-.85-.02-1.7.16-2.47.52-.69.33-1.29.82-1.76,1.42-.5.61-.88,1.31-1.13,2.06-.24.79-.36,1.61-.36,2.43,0,.82.14,1.63.42,2.4.26.74.67,1.42,1.19,2,.51.57,1.14,1.02,1.84,1.32.76.33,1.59.49,2.42.48.86.02,1.71-.15,2.49-.51.73-.38,1.38-.89,1.91-1.52l2.45,2.4c-.85.96-1.93,1.7-3.13,2.14-1.21.44-2.48.66-3.77.65-1.32.02-2.63-.22-3.86-.69-1.12-.44-2.14-1.09-3-1.93-.87-.85-1.55-1.87-2-3-.47-1.23-.71-2.53-.69-3.85-.02-1.33.22-2.64.69-3.88.44-1.12,1.1-2.14,1.94-3,.85-.87,1.87-1.55,3-2,1.24-.49,2.56-.73,3.89-.71,1.3,0,2.6.24,3.81.71,1.21.46,2.29,1.21,3.16,2.17l-2.56,2.39Z"/>
        <path class="cls-1" d="M256.06,110.34h-3.45v-2.79h-.08c-.47,1.01-1.27,1.84-2.26,2.35-1.14.62-2.42.93-3.72.9-.86,0-1.71-.13-2.53-.4-.78-.26-1.49-.68-2.09-1.24-.63-.61-1.12-1.34-1.43-2.16-.38-1-.56-2.05-.54-3.12v-11.71h3.45v10.74c-.02.74.1,1.47.35,2.16.19.55.51,1.05.92,1.46.37.37.82.64,1.32.8.5.17,1.02.25,1.55.25.68,0,1.36-.11,2-.34.61-.23,1.17-.61,1.61-1.09.49-.55.86-1.2,1.08-1.9.27-.88.4-1.8.38-2.72v-9.36h3.45v18.17Z"/>
        <path class="cls-1" d="M263.88,102.52c0,.75.17,1.5.52,2.17.34.64.8,1.21,1.36,1.67.59.48,1.27.84,2,1.07.74.26,1.52.39,2.3.38.98.02,1.95-.24,2.8-.74.83-.54,1.57-1.22,2.18-2l2.61,2c-1.92,2.47-4.92,3.86-8.05,3.71-1.33.02-2.66-.23-3.9-.72-1.13-.45-2.15-1.13-3-2-.81-.87-1.44-1.89-1.86-3-.44-1.21-.66-2.48-.65-3.77-.01-1.29.23-2.58.71-3.78.47-1.12,1.15-2.14,2-3,.86-.86,1.88-1.54,3-2,1.19-.49,2.46-.74,3.75-.73,1.41-.05,2.81.25,4.09.85,1.06.52,2,1.27,2.74,2.2.69.89,1.21,1.91,1.52,3,.32,1.13.48,2.3.48,3.47v1.22h-14.6ZM274.77,99.76c-.02-.72-.14-1.43-.36-2.11-.22-.62-.56-1.18-1-1.66-.45-.49-1.01-.87-1.63-1.12-.73-.28-1.5-.41-2.28-.4-.8-.01-1.59.15-2.32.48-.67.3-1.27.72-1.78,1.25-.48.49-.86,1.07-1.14,1.7-.25.59-.39,1.22-.4,1.86h10.91Z"/>
        <path class="cls-1" d="M292.25,96.73c-.42-.52-.93-.95-1.51-1.28-.68-.36-1.44-.54-2.21-.52-.74-.02-1.47.16-2.12.52-.58.29-.94.9-.91,1.55-.02.49.17.97.52,1.31.36.34.78.61,1.23.8.48.21.99.37,1.51.46l1.38.27c.71.17,1.41.39,2.09.65.62.24,1.19.57,1.69,1,.47.41.85.92,1.11,1.49.29.68.42,1.41.4,2.15.03.92-.2,1.83-.65,2.63-.42.71-.99,1.32-1.68,1.78-.72.47-1.52.81-2.36,1-.88.2-1.77.3-2.67.3-1.37.03-2.72-.2-4-.69-1.24-.54-2.29-1.41-3.05-2.53l2.6-2.14c.57.56,1.2,1.06,1.88,1.49.76.46,1.64.68,2.53.65.45,0,.89-.04,1.33-.13.41-.08.81-.22,1.18-.42.33-.18.62-.43.85-.73.21-.29.32-.64.32-1,.02-.47-.16-.92-.48-1.26-.33-.34-.72-.61-1.15-.79-.46-.19-.93-.35-1.41-.46l-1.33-.29c-.71-.17-1.42-.37-2.11-.61-.63-.21-1.23-.52-1.76-.92-.51-.39-.94-.89-1.23-1.46-.33-.68-.48-1.43-.46-2.18-.02-.86.19-1.71.6-2.47.39-.72.94-1.34,1.62-1.81.68-.46,1.43-.8,2.22-1,.82-.23,1.67-.35,2.52-.35,1.21,0,2.4.23,3.52.69,1.12.46,2.06,1.26,2.69,2.3l-2.7,2Z"/>
        <path class="cls-1" d="M309.35,95.16h-5v9.76c.02.46.12.91.29,1.34.15.4.42.75.77,1,.46.27.98.39,1.51.36.43,0,.85-.03,1.27-.11.41-.07.81-.22,1.18-.42v3.14c-.49.26-1.03.42-1.59.48-.5.08-1,.12-1.51.13-1.06.05-2.11-.14-3.09-.55-.66-.31-1.22-.81-1.61-1.44-.35-.61-.56-1.3-.61-2-.06-.73-.1-1.47-.1-2.21v-9.48h-4v-3h4v-5.1h3.45v5.1h5l.04,3Z"/>
        <path class="cls-1" d="M313.87,94.4c.98-.89,2.13-1.57,3.38-2,1.23-.44,2.52-.66,3.83-.67,1.16-.02,2.32.15,3.43.5.87.28,1.67.74,2.36,1.34.59.54,1.06,1.2,1.36,1.94.29.73.44,1.5.44,2.28v11.04c0,.54.06,1,.11,1.53h-3.06c-.08-.92-.12-1.84-.12-2.76h-.07c-.66,1.07-1.6,1.94-2.73,2.5-1.15.5-2.39.75-3.64.72-.82,0-1.63-.11-2.41-.34-.72-.21-1.4-.54-2-1-.57-.46-1.04-1.04-1.36-1.7-.35-.74-.52-1.55-.5-2.36-.04-1.06.23-2.1.79-3,.55-.81,1.29-1.48,2.15-1.94.99-.53,2.06-.89,3.17-1.08,1.28-.23,2.59-.34,3.89-.33h2.53v-.76c0-.47-.09-.94-.27-1.38-.18-.47-.45-.89-.8-1.25-.38-.38-.84-.68-1.35-.88-.61-.23-1.26-.35-1.91-.33-.59,0-1.18.06-1.75.19-.47.12-.92.28-1.36.48-.39.19-.76.41-1.11.67l-1,.73-2-2.14ZM323.61,101.6c-.84,0-1.68.05-2.51.14-.8.07-1.58.25-2.34.52-.65.22-1.24.58-1.72,1.07-.46.47-.7,1.11-.68,1.76-.07.89.33,1.75,1.06,2.26.87.5,1.86.74,2.86.69.83.02,1.65-.14,2.41-.48.62-.28,1.18-.71,1.61-1.24.41-.5.71-1.09.88-1.71.18-.6.27-1.23.27-1.86v-1.15h-1.84Z"/>
        <path class="cls-1" d="M346,104.67c.62.96,1.51,1.73,2.55,2.2,1,.47,2.09.71,3.2.71.64,0,1.27-.1,1.88-.28.63-.19,1.21-.48,1.74-.87.54-.38.99-.87,1.33-1.43.35-.61.52-1.3.49-2,.05-.91-.32-1.79-1-2.4-.74-.59-1.58-1.06-2.48-1.38-1-.37-2.05-.72-3.22-1.07-1.13-.33-2.22-.81-3.22-1.44-1-.63-1.84-1.47-2.47-2.47-.72-1.28-1.07-2.73-1-4.2.04-1.88.81-3.68,2.15-5,.83-.8,1.8-1.43,2.86-1.86,1.33-.53,2.76-.79,4.2-.75,1.44,0,2.87.2,4.25.61,1.42.45,2.66,1.32,3.57,2.5l-3,2.72c-.5-.75-1.19-1.34-2-1.73-.89-.4-1.86-.58-2.83-.53-.87-.02-1.73.11-2.55.4-.61.21-1.16.55-1.63,1-.39.38-.68.85-.87,1.36-.15.43-.24.88-.25,1.34-.06.99.3,1.95,1,2.65.72.65,1.56,1.15,2.47,1.49,1.05.39,2.13.73,3.22,1,1.12.28,2.21.71,3.22,1.28.98.55,1.83,1.31,2.48,2.23.72,1.15,1.07,2.49,1,3.85.02,1.22-.23,2.42-.74,3.53-.47,1.01-1.15,1.91-2,2.64-.88.74-1.9,1.3-3,1.65-1.19.39-2.43.58-3.68.57-1.69.01-3.37-.3-4.94-.92-1.49-.56-2.79-1.54-3.72-2.83l2.99-2.57Z"/>
        <path class="cls-1" d="M368.39,110.57c-1.39,0-2.52-1.12-2.53-2.51,0-.67.27-1.32.75-1.8.99-.98,2.59-.98,3.58.02.46.47.73,1.1.73,1.76,0,1.4-1.14,2.52-2.53,2.53Z"/>
        <path class="cls-1" d="M385.72,83.2h3.33l11.62,27.14h-4.3l-2.72-6.7h-12.92l-2.68,6.7h-4.29l11.96-27.14ZM392.31,100.41l-5.06-12.41h-.08l-5.17,12.41h10.31Z"/>
        <path class="cls-1" d="M406,110.57c-1.4-.02-2.52-1.17-2.5-2.57-.01-1.4,1.12-2.55,2.52-2.56,1.4-.01,2.55,1.12,2.56,2.52,0,.69-.27,1.35-.76,1.83-.47.5-1.13.78-1.82.78Z"/>
        <line class="cls-2" y1="117.42" x2="409.27" y2="117.42"/>
        <path class="cls-1" d="M33.25,129.64c-.09,1.17-.59,2.26-1.41,3.1-1.16,1.27-2.64,2.21-4.28,2.74-1.78.67-3.66,1.03-5.56,1.05-1.46.06-2.91-.18-4.28-.69-1.38,2.15-2.9,4.21-4.55,6.16-1.87,1.95-4.47,3.04-7.17,3-1.28.1-2.54-.3-3.54-1.1-.78-.73-1.21-1.77-1.17-2.84.04-1.71.73-3.33,1.94-4.54,1.35-1.54,3.32-2.4,5.37-2.35.79-.03,1.57.18,2.24.61.62.41.97,1.11.92,1.85-.09.75-.42,1.46-.95,2-.62.77-1,1.16-1.16,1.16s0,0,0-.11c0-.08.03-.16.08-.22.53-.69.84-1.53.89-2.4.04-.64-.21-1.26-.68-1.69-.47-.4-1.07-.61-1.68-.59-1.62.03-3.14.81-4.11,2.11-1.09,1.17-1.72,2.69-1.79,4.28-.03.84.28,1.66.88,2.25.75.63,1.72.94,2.7.86,2.17.03,4.27-.79,5.84-2.3,1.13-1.15,2.09-2.45,2.85-3.88l2.37-4.34c1.58-2.72,2.96-5.55,4.13-8.47h-.5c-2.52,0-5.04.27-7.51.81-2.05.35-3.99,1.15-5.7,2.34-.46.26-.76.73-.83,1.25,0,.43.25.83.65,1,.47.26,1,.39,1.54.38.74-.03,1.48-.14,2.2-.35.73-.16,1.41-.47,2-.93.11-.11.24-.18.39-.22.14,0,.17.08.08.22-.81.86-1.85,1.47-3,1.75-.8.24-1.63.36-2.47.36-.71.03-1.41-.16-2-.54-.5-.32-.79-.88-.77-1.47.06-.74.42-1.41,1-1.87,1.26-1.22,3.5-2.12,6.73-2.71,2.61-.43,5.25-.64,7.9-.61h.74c.3-.3.69-.49,1.11-.53.33,0,.5.13.5.39,0,.06,0,.13,0,.19,2.4.1,4.76.59,7,1.44,2.01.87,3.06,2.02,3.06,3.45ZM31.95,129.36c0-1.17-.94-2.12-2.83-2.85-1.97-.71-4.03-1.11-6.12-1.17l-.89,2.77c-1.12,2.53-2.46,4.96-4,7.26.3.13.62.23.94.3.57.11,1.14.18,1.72.2,1.65-.04,3.28-.34,4.84-.88,1.69-.51,3.26-1.37,4.59-2.54,1.14-1.12,1.8-2.15,1.8-3.09h-.05Z"/>
        <path class="cls-1" d="M35.05,142.15c-1.38,0-2.08-.76-2.08-2.3.03-.88.24-1.74.61-2.54.35-.82.8-1.59,1.33-2.31-.12.01-.24.01-.36,0-.44,0-.81-.32-1.1-.94l-2.05,2.65c-1.15,1.43-1.81,2.14-2,2.14s-.14,0-.14-.11c.07-.31.23-.6.47-.81,1.31-1.44,2.46-3.03,3.41-4.73.43-1.61,1-2.41,1.61-2.41.42,0,.63.18.63.55-.07.53-.32,1.03-.69,1.41l-.66.89c0,.39.28.58.86.58.39-.02.77-.14,1.1-.36l.72-.44c.09-.02.19-.02.28,0,.19.02.36.12.47.28.15.12.21.31.17.5l-1.91,2.41c-1.19,1.51-1.78,2.71-1.78,3.58s.41,1.32,1.22,1.32c1.16-.12,2.25-.6,3.13-1.36.73-.53,1.4-1.13,2-1.8.28-.37.6-.7.95-1,.12,0,.19.07.19.21-.02.19-.11.36-.25.49l-.89,1c-.52.54-1.07,1.04-1.66,1.5-1.01.88-2.25,1.44-3.58,1.6Z"/>
        <path class="cls-1" d="M41.31,142.32c-.94,0-1.41-.61-1.41-1.83.18-1.5.74-2.92,1.63-4.14,1.09-1.76,2-2.65,2.63-2.67.23.01.45.09.63.22.23.15.34.3.34.44-.1.15-.21.29-.33.43l-.42.51c-.14.19-.35.45-.6.79l-.75,1c-1.39,1.79-2.08,3-2.08,3.7s.23,1,.69,1c.57-.07,1.12-.29,1.58-.64,1.4-.82,2.65-1.88,3.69-3.13.33-.42.55-.64.67-.64s.18.08.18.23-.21.44-.63.88l-1,1.05-.52.52-.51.47c-.18.17-.37.33-.57.48l-.55.42c-.2.16-.41.29-.64.4l-.63.29c-.45.17-.92.24-1.4.22ZM47.11,131c.23.13.37.36.38.62,0,.25-.14.48-.35.62-.21.17-.48.27-.76.27-.28,0-.56-.11-.76-.31-.21-.17-.34-.42-.35-.69,0-.52.35-.77,1-.77.3-.01.6.08.84.26Z"/>
        <path class="cls-1" d="M59.81,141.68c-1.25,0-1.88-.58-1.88-1.74.09-.96.39-1.9.88-2.73.52-1.03,1.14-2.01,1.86-2.92-1.48.79-2.83,1.8-4,3-1.37,1.27-2.44,2.82-3.13,4.56-.1.16-.28.24-.47.22-.44,0-.67-.25-.67-.75.26-1.21.68-2.39,1.25-3.49.2-.42.8-1.66,1.8-3.71-1.34.85-2.57,1.86-3.67,3-1.01,1.08-1.94,2.17-2.8,3.26-.39.61-.86,1.15-1.41,1.62-.25,0-.48-.13-.62-.33-.17-.18-.26-.41-.27-.66.34-1.27.83-2.5,1.44-3.66l-1.66,1.74c-.4.41-.66.61-.76.61s-.15-.06-.15-.18c.02-.16.1-.3.22-.4.65-.63,1.26-1.3,1.83-2,.53-.67,1.42-1.88,2.66-3.65.19-.27.51-.43.85-.42.37,0,.56.18.56.53-.42.94-.91,1.84-1.47,2.7-.64.99-1.18,2.05-1.63,3.14.75-.83,1.89-1.95,3.4-3.35,2.27-2.1,3.77-3.16,4.49-3.16.22,0,.43.07.61.2.16.09.26.25.28.43-.28.73-.65,1.43-1.08,2.09-.43.73-.83,1.49-1.17,2.27,2-1.72,3.08-2.59,3.08-2.61,1.73-1.34,3-2,3.74-2,.22,0,.44.07.62.21.17.1.28.29.29.49,0,0-.6.81-1.8,2.34-.96,1.07-1.65,2.36-2,3.75-.05.27.02.54.19.75.26.19.58.28.9.25.71-.12,1.37-.43,1.91-.9.95-.7,1.81-1.52,2.57-2.43.33-.37.55-.55.67-.55s.18,0,.18.14c-.02.17-.11.33-.25.44-.85,1.05-1.83,1.98-2.92,2.78-.7.61-1.55,1-2.47,1.12Z"/>
        <path class="cls-1" d="M65.46,142.38c-.19,0-.37-.03-.55-.09-1.18-.33-1.77-1-1.77-2,0-1.29.81-2.79,2.43-4.49,1.62-1.7,3.1-2.55,4.43-2.54.36,0,.72.12,1,.35.26.2.4.51.4.84,0,1.04-.78,2.04-2.34,3-1.13.79-2.44,1.28-3.81,1.41-.13,0-.26-.02-.39-.06-.27.48-.41,1.03-.41,1.58,0,1,.45,1.44,1.37,1.44s2.1-.61,3.56-1.85c1.06-.85,2.03-1.82,2.88-2.88.16-.22.31-.34.43-.34s.18.06.18.17c-.03.17-.11.34-.22.47-1.04,1.33-2.27,2.5-3.65,3.46-1,.86-2.23,1.39-3.54,1.53ZM70.7,134.38c0-.22-.24-.33-.71-.33-.76.15-1.46.52-2,1.08-1.06.84-1.98,1.86-2.71,3,.12.03.24.05.36.05,1.02-.12,1.99-.5,2.81-1.12.99-.54,1.76-1.41,2.2-2.45.03-.07.05-.14.05-.21v-.02Z"/>
        <path class="cls-1" d="M76.82,142.15c-1.39,0-2.08-.76-2.08-2.3.02-.88.23-1.75.61-2.54.35-.82.8-1.59,1.33-2.31-.12.01-.24.01-.36,0-.44,0-.81-.32-1.11-.94l-2,2.65c-1.14,1.43-1.81,2.14-2,2.14s-.14,0-.14-.11c.07-.31.23-.6.47-.81,1.31-1.44,2.45-3.03,3.41-4.73.42-1.61,1-2.41,1.6-2.41.43,0,.64.18.64.55-.07.53-.32,1.03-.69,1.41l-.67.89c0,.39.29.58.86.58.4-.02.78-.14,1.11-.36l.72-.44c.09-.02.19-.02.28,0,.19.02.36.12.47.28.15.12.21.32.16.5l-1.91,2.41c-1.18,1.51-1.77,2.71-1.77,3.58s.41,1.32,1.22,1.32c1.16-.12,2.25-.6,3.13-1.36.73-.53,1.4-1.13,2-1.8.28-.36.59-.7.94-1,.1-.01.19.06.2.16,0,.02,0,.04,0,.05-.03.17-.12.32-.24.44l-.89,1c-.52.54-1.07,1.04-1.66,1.5-1.01.91-2.28,1.48-3.63,1.65Z"/>
        <path class="cls-1" d="M89.31,136.14c0,.67-.62,1.75-1.86,3.24-1.46,1.8-2.7,2.69-3.74,2.69h-.44c-.49,0-.94-.3-1.14-.75-.22-.35-.33-.75-.33-1.16,0-1.11.81-2.66,2.43-4.67s2.92-3,3.91-3,1.42.5,1.42,1.49c-.01.34-.06.67-.14,1,0,.06.19.08.53.08.54-.07,1.06-.24,1.52-.52,0,.31-.73.76-2.19,1.35.02.08.03.17.03.25ZM87.51,134.7c-.63,0-1.52.74-2.67,2.22-1.15,1.48-1.73,2.57-1.74,3.27,0,.7.23,1.05.67,1.05.79,0,1.8-.72,3-2.16s1.83-2.48,1.83-3.1c-.45-.34-.82-.78-1.09-1.28Z"/>
        <path class="cls-1" d="M128.47,129.64c-.09,1.17-.59,2.26-1.41,3.1-1.16,1.27-2.64,2.21-4.28,2.74-1.78.68-3.67,1.03-5.57,1.05-1.46.06-2.91-.18-4.28-.69-1.37,2.15-2.89,4.22-4.54,6.17-1.87,1.95-4.45,3.03-7.15,3-1.27.1-2.54-.3-3.53-1.1-.78-.73-1.21-1.77-1.17-2.84.04-1.71.73-3.33,1.94-4.54,1.35-1.54,3.32-2.4,5.37-2.35.79-.03,1.57.19,2.24.61.62.41.97,1.11.92,1.85-.1.76-.45,1.46-1,2-.62.77-1,1.16-1.16,1.16s-.05,0-.05-.11c0-.08.03-.16.08-.22.53-.69.83-1.53.88-2.4.04-.63-.21-1.25-.67-1.69-.47-.4-1.07-.61-1.68-.59-1.62.03-3.14.81-4.11,2.11-1.09,1.17-1.72,2.69-1.79,4.28-.04.84.28,1.65.87,2.25.75.63,1.72.94,2.7.86,2.2.06,4.33-.77,5.92-2.29,1.13-1.15,2.09-2.45,2.85-3.88l2.41-4.35c1.58-2.72,2.96-5.55,4.13-8.47h-.5c-2.52,0-5.04.27-7.51.81-2.05.35-3.99,1.15-5.7,2.34-.46.26-.76.73-.83,1.25,0,.43.25.83.65,1,.47.26,1,.39,1.53.38.75-.02,1.49-.14,2.21-.35.73-.16,1.41-.47,2-.93.11-.1.24-.18.38-.22.15,0,.18.08.09.22-.81.86-1.85,1.47-3,1.75-.8.24-1.63.36-2.47.36-.71.03-1.41-.16-2-.54-.5-.32-.79-.88-.78-1.47.06-.73.42-1.41,1-1.87,1.26-1.22,3.5-2.12,6.73-2.71,2.61-.43,5.25-.64,7.89-.61h.75c.3-.3.69-.49,1.11-.53.33,0,.5.13.5.39,0,.06,0,.13,0,.19,2.4.1,4.76.59,7,1.44,1.98.86,3.03,2.01,3.03,3.44ZM127.17,129.36c0-1.17-.94-2.12-2.83-2.85-1.98-.72-4.06-1.11-6.17-1.17l-.89,2.77c-1.12,2.53-2.46,4.96-4,7.26.3.13.62.23.94.3.57.11,1.14.18,1.72.2,1.65-.04,3.28-.34,4.84-.88,1.69-.51,3.26-1.37,4.59-2.54,1.18-1.12,1.8-2.15,1.8-3.09Z"/>
        <path class="cls-1" d="M125.62,142.32c-.94,0-1.42-.61-1.42-1.83.18-1.5.75-2.92,1.64-4.14,1.09-1.76,2-2.65,2.63-2.67.22.01.44.09.62.22.23.15.35.3.35.44-.1.15-.21.29-.33.43l-.42.51-.61.79-.75,1c-1.38,1.79-2.07,3-2.07,3.7s.23,1,.69,1c.57-.07,1.12-.29,1.58-.64,1.4-.83,2.65-1.9,3.68-3.16.33-.42.56-.64.68-.64s.18.08.18.23-.21.44-.64.88-.76.8-1,1.05l-.51.52-.51.47c-.18.17-.37.33-.57.48l-.55.42c-.2.16-.41.29-.64.4l-.64.29c-.44.18-.91.26-1.39.25ZM131.42,130.98c.22.13.36.36.37.62,0,.25-.13.48-.34.62-.22.17-.48.27-.76.27-.29,0-.56-.11-.77-.31-.21-.17-.34-.42-.34-.69,0-.52.35-.77,1-.77.3,0,.6.09.84.28v-.02Z"/>
        <path class="cls-1" d="M132.29,142.38c-.19,0-.37-.03-.55-.09-1.18-.33-1.77-1-1.77-2,0-1.29.81-2.79,2.43-4.49,1.62-1.7,3.08-2.55,4.38-2.55.36,0,.72.12,1,.35.26.2.4.51.4.84,0,1.04-.78,2.04-2.34,3-1.13.79-2.44,1.28-3.81,1.41-.13,0-.26-.02-.39-.06-.27.48-.41,1.03-.41,1.58,0,1,.45,1.44,1.37,1.44s2.1-.61,3.56-1.85c1.06-.85,2.03-1.82,2.88-2.88.16-.22.31-.34.43-.34s.18.06.18.17c-.03.17-.11.34-.22.47-1.02,1.34-2.24,2.51-3.61,3.49-1,.85-2.23,1.37-3.53,1.51ZM137.53,134.38c0-.22-.24-.33-.71-.33-.76.15-1.46.52-2,1.08-1.06.84-1.98,1.86-2.71,3,.12.03.24.05.36.05,1.02-.12,1.99-.5,2.81-1.12.99-.54,1.76-1.41,2.2-2.45.03-.07.05-.14.05-.21v-.02Z"/>
        <path class="cls-1" d="M147.11,133.62c2.07-3.33,3.51-5,4.32-5,.19.01.37.06.54.13.23.08.35.2.35.37-.02.13-.06.25-.14.36-1.48,1.81-2.58,3.17-3.3,4.07-2.18,2.75-3.38,4.73-3.6,5.93-.05.26-.08.52-.08.78,0,.83.34,1.24,1,1.24,1.37,0,3.16-1.26,5.35-3.79.12-.15.29-.26.47-.32.13,0,.19,0,.19.09-.01.13-.07.25-.16.34-2.14,2.56-4,4-5.71,4.29-.13.01-.26.01-.39,0-.5.03-.99-.19-1.28-.6-.28-.37-.43-.82-.43-1.28.01-.59.11-1.17.3-1.72l-2.24,2.24c-.62.72-1.47,1.22-2.4,1.41-.52.02-1.04-.15-1.45-.47-.46-.34-.71-.89-.69-1.46,0-1.33.94-2.95,2.82-4.84s3.61-2.83,5.18-2.81c.41-.05.81.11,1.08.42.12.19.21.4.27.62ZM138.94,140.55c0,.67.23,1,.69,1,.8,0,2.13-1.09,4-3.26.33-.39,1.44-1.84,3.33-4.35-.14-.23-.4-.35-.67-.33-1.14,0-2.65.87-4.51,2.61s-2.84,3.18-2.84,4.33h0Z"/>
        <path class="cls-1" d="M152.34,142.38c-.19,0-.37-.03-.55-.09-1.18-.33-1.77-1-1.77-2,0-1.29.81-2.79,2.43-4.49,1.62-1.7,3.08-2.55,4.38-2.55.36,0,.72.12,1,.35.26.2.4.51.4.84,0,1.04-.78,2.04-2.34,3-1.13.79-2.44,1.28-3.81,1.41-.13,0-.26-.02-.39-.06-.27.48-.41,1.03-.41,1.58,0,1,.46,1.44,1.37,1.44s2.1-.61,3.56-1.85c1.07-.85,2.03-1.81,2.88-2.88.17-.22.31-.34.43-.34s.18.06.18.17c-.03.17-.11.34-.22.47-1.02,1.33-2.23,2.51-3.6,3.49-1,.85-2.24,1.37-3.54,1.51ZM157.58,134.38c0-.22-.24-.33-.71-.33-.76.15-1.46.52-2,1.08-1.06.84-1.98,1.86-2.71,3,.12.03.24.05.36.05,1.02-.12,1.99-.5,2.81-1.12.99-.54,1.76-1.41,2.2-2.45.03-.07.05-.14.05-.21v-.02Z"/>
        <path class="cls-1" d="M160.15,142.38c-.19,0-.37-.03-.55-.09-1.18-.33-1.77-1-1.77-2,0-1.29.81-2.79,2.43-4.49,1.62-1.7,3.08-2.55,4.38-2.55.36,0,.72.12,1,.35.27.23.42.58.4.94-.01.44-.14.87-.36,1.25-.2.41-.62.66-1.08.65-.48,0-.72-.15-.72-.44.05-.33.18-.65.37-.93.14-.22.27-.44.38-.67h-.08c-.79.19-1.51.57-2.12,1.11-.69.48-1.32,1.06-1.85,1.72l-1.08,1.57c-.19.33-.33.69-.4,1.06-.07.3-.11.6-.12.91.02.26.15.51.34.69.26.27.63.41,1,.39,1.29-.16,2.49-.73,3.43-1.62,1.18-.89,2.24-1.93,3.16-3.09.08-.1.2-.16.33-.16.13,0,.2,0,.2.11-.02.1-.07.2-.14.27-1.03,1.36-2.25,2.55-3.64,3.54-1,.82-2.22,1.34-3.51,1.48Z"/>
        <path class="cls-1" d="M173.64,142.18c-.2.02-.39.02-.59,0-.34-.01-.66-.14-.92-.36-.29-.22-.46-.57-.45-.93,0-.43.07-.85.2-1.26.14-.46.24-.81.29-1-2.12,2.47-3.79,3.7-5,3.71-.76,0-1.17-.47-1.25-1.41v-.2c.16-1.19.66-2.3,1.44-3.21-.58.52-1.12,1.08-1.63,1.66-.07.08-.18.12-.28.11-.07,0-.11,0-.11-.14.04-.18.13-.34.25-.47l3.82-4.48c.34-.48.88-.78,1.47-.83.5,0,.75.16.75.49,0,.14-.07.27-.17.36-1.03,1.05-1.96,2.19-2.78,3.41-1.12,1.59-1.68,2.76-1.68,3.52,0,.33.11.5.33.5.78,0,1.91-.77,3.38-2.3.52-.52,1.48-1.66,2.88-3.42,1.41-1.77,2.33-2.65,2.77-2.65.67,0,1,.26,1,.78-.28.6-.68,1.14-1.16,1.6-1.05,1.28-1.86,2.32-2.41,3.12-.47.57-.76,1.27-.83,2,0,.5.14.75.41.75.16,0,.31-.04.45-.11,1.77-.97,3.33-2.29,4.57-3.88.08-.11.2-.18.33-.19.11,0,.16.06.16.18-.01.15-.08.29-.19.4-.87.99-1.8,1.92-2.8,2.78-.64.64-1.41,1.14-2.25,1.47Z"/>
        <path class="cls-1" d="M179.07,142.38c-.19,0-.37-.03-.55-.09-1.19-.33-1.78-1-1.78-2,0-1.29.82-2.79,2.44-4.49s3.08-2.55,4.38-2.55c.36,0,.72.12,1,.35.25.21.4.51.4.84,0,1.04-.78,2.04-2.34,3-1.13.79-2.44,1.28-3.81,1.41-.13,0-.26-.02-.39-.06-.27.48-.41,1.03-.41,1.58,0,1,.45,1.44,1.37,1.44s2.1-.61,3.56-1.85c1.06-.85,2.03-1.82,2.88-2.88.16-.22.3-.34.42-.34s.19.06.19.17c-.03.18-.11.34-.23.47-1.02,1.34-2.23,2.52-3.6,3.49-1,.85-2.23,1.37-3.53,1.51ZM184.3,134.38c0-.22-.23-.33-.7-.33-.76.15-1.46.52-2,1.08-1.06.84-1.98,1.86-2.71,3,.12.03.24.05.36.05,1.02-.12,1.99-.5,2.81-1.12.99-.54,1.76-1.41,2.2-2.45.03-.07.04-.14.04-.21v-.02Z"/>
        <path class="cls-1" d="M189.87,141.6c-.61.33-1.3.5-2,.47-.69.04-1.35-.25-1.8-.77-.51-.75-.88-1.59-1.07-2.47-.33.33-.56.5-.69.5s-.14-.07-.14-.2c0-.12.05-.24.14-.33.61-.75,1.65-1.84,3.1-3.27l3.49-3.26c1-1,1.59-1.42,1.78-1.42.59,0,.88.22.88.67,0,.24-.1.47-.26.65-.14.16-.27.33-.39.5-.08.12-.17.23-.26.34-.5,1.13-.83,2.33-1,3.55-.34,1.79-.61,3-.79,3.74,1.53,0,3.11-1,4.73-3,.19-.19.33-.28.42-.28s.14.06.14.18c-.03.18-.12.35-.25.48-.83,1.05-1.85,1.95-3,2.64-.69.31-1.42.54-2.16.69l-.87.59ZM186.13,138.53c-.02.58.21,1.13.63,1.53.37.37.87.59,1.39.6.42.03.84-.08,1.19-.31.37-.2.74-1,1.1-2.54.33-1.31.55-2.65.65-4l.11-.94c-1.16.89-2.25,1.87-3.25,2.94-1.16,1.2-1.75,2-1.79,2.38-.02.11-.03.23-.03.34h0Z"/>
        <path class="cls-1" d="M202,133.1l4-.06c.06,0,.09.07.09.08,0,.17-1.15.4-3.45.7s-3.54.47-3.73.52c-.74.87-1.39,1.81-1.93,2.81-.73,1.01-1.22,2.18-1.42,3.42,0,.69.47,1,1.42,1,.6-.04,1.19-.18,1.74-.42.58-.2,1.13-.46,1.66-.77,1.22-.81,2.34-1.77,3.33-2.85.25-.26.43-.39.52-.39s.09.05.09.16c-.08.26-.23.49-.42.67-.91,1.13-2,2.1-3.24,2.85-1.23.82-2.66,1.28-4.13,1.33-.49.02-.98-.11-1.4-.37-.42-.38-.62-.95-.54-1.51.11-1.1.45-2.16,1-3.12.67-1.32,1.17-2.3,1.52-3-.22.05-.44.08-.66.09-.54,0-.8-.22-.8-.64s.22-.54.66-.67h1.86l1.13-1.47c.52-.67.87-1,1.05-1,.25.02.49.1.7.22.27.15.41.33.41.53-.33.68-.78,1.29-1.33,1.8.43.06,1.06.09,1.87.09Z"/>
        <path class="cls-1" d="M212.17,133.73l.38-.08c.22,0,.43.09.59.25.18.17.27.3.27.39-.52.94-1.09,1.84-1.71,2.71-1.15,1.69-1.72,2.87-1.72,3.53,0,.06,0,.11,0,.17.09.42.29.64.6.64,1,0,2.72-1.59,5.27-4.77.04-.07.11-.11.19-.11.07,0,.11.07.11.21-.03.2-.11.39-.25.54-2.36,3.16-4.16,4.73-5.4,4.73-.16,0-.32-.02-.47-.08-.78-.26-1.28-1.01-1.22-1.83,0-.32.04-.63.11-.94l-1.71,1.66c-.63.7-1.45,1.21-2.37,1.44-.51,0-1-.17-1.4-.47-.48-.33-.76-.88-.75-1.46,0-1.33.94-2.95,2.83-4.84s3.61-2.83,5.18-2.81c.5-.06.98.2,1.22.64.05.15.1.27.13.37s.1.11.12.11ZM203.89,140.55c0,.67.23,1,.69,1,1.07,0,2.52-1.17,4.37-3.51l2.94-4.05c-.15-.26-.43-.4-.72-.38-1.13,0-2.62.87-4.49,2.61s-2.79,3.18-2.79,4.33Z"/>
        <path class="cls-1" d="M219,141.21c-.01.79-.33,1.54-.89,2.09-.59.62-.99.93-1.2.93h-.32c.17-.27.37-.51.59-.74.32-.29.53-.67.6-1.09-.01-.29-.15-.57-.38-.75-.24-.22-.37-.39-.37-.5-.06-.39.2-.76.6-.83.07-.01.14-.01.2,0,.29,0,.57.1.79.28.22.13.36.36.38.61Z"/>
        <path class="cls-1" d="M258.34,129.64c-.1,1.17-.6,2.26-1.42,3.1-1.16,1.27-2.64,2.22-4.28,2.74-1.78.68-3.66,1.03-5.56,1.05-1.46.06-2.91-.18-4.28-.69-1.38,2.15-2.9,4.21-4.54,6.17-1.87,1.94-4.45,3.03-7.15,3-1.27.1-2.54-.3-3.53-1.1-.79-.73-1.22-1.77-1.18-2.84.04-1.71.74-3.33,1.94-4.54,1.35-1.54,3.32-2.4,5.37-2.35.79-.03,1.58.18,2.25.61.61.41.96,1.11.91,1.85-.08.75-.41,1.46-.94,2-.63.77-1,1.16-1.16,1.16s-.06,0-.06-.11c0-.08.03-.16.08-.22.53-.69.84-1.53.89-2.4.04-.64-.21-1.26-.68-1.69-.46-.4-1.06-.61-1.67-.59-1.62.03-3.14.81-4.12,2.11-1.09,1.17-1.72,2.69-1.78,4.28-.04.84.28,1.65.87,2.25.75.63,1.72.94,2.7.86,2.17.04,4.27-.79,5.84-2.3,1.14-1.15,2.1-2.45,2.86-3.88l2.41-4.35c1.58-2.72,2.96-5.55,4.12-8.47h-.5c-2.52,0-5.04.27-7.5.81-2.05.36-4,1.15-5.71,2.34-.45.27-.76.73-.83,1.25,0,.43.26.82.65,1,.47.26,1,.39,1.54.38.74-.03,1.48-.14,2.2-.35.73-.15,1.41-.47,2-.93.11-.1.25-.18.39-.22.15,0,.17.08.08.22-.81.87-1.85,1.48-3,1.75-.8.24-1.63.36-2.46.36-.71.03-1.4-.16-2-.54-.49-.32-.78-.88-.77-1.47.06-.74.42-1.41,1-1.87,1.25-1.22,3.5-2.12,6.73-2.71,2.61-.43,5.25-.64,7.89-.61h.75c.29-.3.69-.49,1.11-.53.33,0,.49.13.49.39,0,.06,0,.13,0,.19,2.4.1,4.76.59,7,1.44,1.99.87,3.05,2.02,3.05,3.45ZM257.03,129.36c0-1.17-.94-2.12-2.82-2.85-1.98-.72-4.07-1.11-6.18-1.17l-.88,2.77c-1.14,2.53-2.49,4.96-4.05,7.26.3.13.62.23.94.3.57.11,1.14.18,1.72.2,1.65-.04,3.29-.34,4.85-.88,1.69-.51,3.25-1.37,4.58-2.54,1.23-1.12,1.81-2.15,1.81-3.09h.03Z"/>
        <path class="cls-1" d="M260.14,142.15c-1.39,0-2.08-.76-2.08-2.3.02-.88.23-1.75.61-2.54.35-.82.79-1.6,1.33-2.31-.12.01-.24.01-.36,0-.45,0-.82-.32-1.11-.94l-2,2.65c-1.15,1.43-1.81,2.14-2,2.14s-.14,0-.14-.11c.06-.31.23-.6.47-.81,1.31-1.45,2.45-3.03,3.41-4.73.42-1.61,1-2.41,1.6-2.41.43,0,.64.18.64.55-.07.53-.32,1.03-.69,1.41l-.67.89c0,.39.29.58.86.58.4-.02.78-.14,1.11-.36l.72-.44c.09-.02.18-.02.27,0,.19.02.37.12.48.28.15.12.21.32.16.5l-1.91,2.41c-1.18,1.51-1.77,2.71-1.77,3.58s.4,1.32,1.22,1.32c1.16-.12,2.25-.6,3.13-1.36.73-.53,1.4-1.13,2-1.8.28-.37.59-.7.94-1,.13,0,.19.07.19.21-.02.19-.11.36-.25.49l-.88,1c-.52.54-1.07,1.04-1.66,1.5-1.02.89-2.28,1.45-3.62,1.6Z"/>
        <path class="cls-1" d="M266.4,142.32c-.95,0-1.42-.61-1.42-1.83.18-1.5.75-2.92,1.64-4.14,1.09-1.76,2-2.65,2.63-2.67.22.01.44.09.62.22.23.15.35.3.35.44s-.21.28-.34.43-.26.33-.41.51l-.61.79-.75,1c-1.38,1.79-2.08,3-2.08,3.7s.24,1,.7,1c.57-.08,1.12-.3,1.58-.64,1.4-.82,2.65-1.88,3.69-3.13.33-.42.56-.64.68-.64s.18.08.18.23-.21.44-.64.88-.76.8-1,1.05l-.51.52-.51.47c-.18.17-.37.33-.57.48l-.56.42c-.2.16-.41.29-.63.4l-.64.29c-.45.17-.92.24-1.4.22ZM272.2,131c.22.13.36.36.37.62,0,.25-.13.48-.34.62-.22.17-.49.27-.77.27-.28,0-.56-.11-.76-.31-.21-.17-.34-.42-.34-.69,0-.52.35-.77,1.05-.77.28,0,.56.09.79.26Z"/>
        <path class="cls-1" d="M284.9,141.68c-1.26,0-1.89-.58-1.89-1.74.09-.96.4-1.9.89-2.73.52-1.03,1.14-2.01,1.85-2.92-1.48.79-2.83,1.8-4,3-1.37,1.27-2.44,2.83-3.13,4.56-.1.16-.28.24-.47.22-.44,0-.66-.25-.66-.75.25-1.22.67-2.39,1.25-3.49l1.79-3.71c-1.34.85-2.57,1.86-3.67,3-1,1.08-1.93,2.17-2.79,3.26-.41.61-.9,1.16-1.46,1.63-.25,0-.48-.13-.62-.33-.16-.18-.25-.42-.26-.66.34-1.27.83-2.5,1.44-3.66l-1.66,1.74c-.41.41-.66.61-.77.61s-.15-.06-.15-.18c.02-.16.1-.3.22-.4.65-.62,1.27-1.29,1.83-2,.54-.68,1.42-1.9,2.66-3.65.2-.28.52-.44.86-.42.37,0,.55.18.55.53-.42.94-.91,1.84-1.47,2.7-.64,1-1.18,2.05-1.63,3.14.76-.83,1.89-1.95,3.41-3.35,2.27-2.1,3.76-3.16,4.48-3.16.22,0,.43.07.61.2.16.09.27.25.28.43-.28.73-.65,1.43-1.08,2.09-.43.73-.82,1.49-1.16,2.27,2.05-1.72,3.07-2.59,3.07-2.61,1.74-1.34,3-2,3.74-2,.22,0,.44.07.62.21.18.1.29.29.29.49,0,0-.6.81-1.8,2.34-.96,1.07-1.65,2.36-2,3.75-.05.27.02.54.2.75.26.19.58.28.9.25.71-.12,1.37-.43,1.91-.9.95-.7,1.81-1.52,2.56-2.43.33-.37.56-.55.68-.55s.18,0,.18.14c-.02.17-.11.33-.25.44-.86,1.04-1.84,1.98-2.92,2.78-.69.59-1.53.98-2.43,1.11Z"/>
        <path class="cls-1" d="M290.55,142.38c-.19,0-.38-.03-.56-.09-1.18-.33-1.77-1-1.77-2,0-1.29.81-2.79,2.44-4.49,1.63-1.7,3.08-2.55,4.37-2.55.36,0,.72.12,1,.35.26.2.4.51.4.84,0,1.04-.78,2.04-2.34,3-1.13.79-2.44,1.28-3.81,1.41-.13,0-.26-.02-.38-.06-.27.48-.42,1.03-.42,1.58,0,1,.46,1.44,1.37,1.44s2.1-.61,3.56-1.85c1.07-.85,2.03-1.81,2.88-2.88.17-.22.31-.34.43-.34s.18.06.18.17c-.03.17-.1.34-.22.47-1.02,1.33-2.23,2.51-3.6,3.49-1,.85-2.23,1.37-3.53,1.51ZM295.78,134.38c0-.22-.23-.33-.71-.33-.76.14-1.46.52-2,1.08-1.07.84-1.99,1.86-2.72,3,.12.03.24.05.36.05,1.02-.12,1.99-.5,2.81-1.12.99-.54,1.77-1.41,2.21-2.45.03-.07.04-.14.05-.21v-.02Z"/>
        <path class="cls-1" d="M301.9,142.15c-1.38,0-2.08-.76-2.08-2.3.03-.88.24-1.74.61-2.54.35-.83.8-1.61,1.33-2.33-.12.01-.24.01-.36,0-.44,0-.81-.32-1.1-.94l-2.05,2.65c-1.15,1.43-1.81,2.14-2,2.14s-.14,0-.14-.11c.07-.31.23-.6.47-.81,1.31-1.44,2.46-3.03,3.41-4.73.42-1.61,1-2.41,1.61-2.41.42,0,.63.18.63.55-.07.53-.32,1.03-.69,1.41l-.66.89c0,.39.28.58.86.58.39-.02.77-.14,1.1-.36l.72-.44c.09-.02.19-.02.28,0,.19.02.36.12.47.28.15.12.21.31.17.5l-1.91,2.41c-1.19,1.51-1.78,2.71-1.78,3.58s.41,1.32,1.22,1.32c1.16-.12,2.25-.6,3.13-1.36.73-.53,1.4-1.13,2-1.8.28-.37.6-.7.95-1,.13,0,.19.07.19.21-.02.19-.11.36-.25.49l-.89,1c-.52.54-1.07,1.04-1.66,1.5-1,.89-2.25,1.45-3.58,1.62Z"/>
        <path class="cls-1" d="M314.39,136.14c0,.65-.62,1.73-1.85,3.24-1.46,1.8-2.71,2.69-3.74,2.69h-.44c-.49,0-.94-.3-1.14-.75-.22-.35-.33-.75-.33-1.16,0-1.11.8-2.66,2.42-4.67s2.92-3,3.92-3,1.41.5,1.41,1.49c0,.34-.05.67-.14,1,0,.06.2.08.53.08.54-.06,1.06-.24,1.52-.52,0,.31-.74.76-2.19,1.35.02.08.03.17.03.25ZM312.59,134.7c-.63,0-1.52.74-2.67,2.22-1.15,1.48-1.73,2.57-1.73,3.27s.22,1.05.66,1.05c.8,0,1.8-.72,3-2.16s1.83-2.48,1.83-3.1c-.45-.35-.82-.78-1.09-1.28h0Z"/>
        <path class="cls-1" d="M321.84,142.38c-.19,0-.37-.03-.55-.09-1.18-.33-1.77-1-1.77-2,0-1.29.81-2.79,2.43-4.49,1.62-1.7,3.08-2.55,4.38-2.55.36,0,.72.12,1,.35.25.21.4.51.4.84,0,1.04-.78,2.04-2.34,3-1.13.79-2.44,1.28-3.81,1.41-.13,0-.26-.02-.39-.06-.27.48-.41,1.03-.41,1.58,0,1,.45,1.44,1.37,1.44s2.1-.61,3.56-1.85c1.06-.85,2.03-1.82,2.88-2.88.16-.22.31-.34.43-.34s.18.06.18.17c-.03.17-.11.34-.22.47-1.02,1.34-2.24,2.51-3.61,3.49-1,.85-2.23,1.37-3.53,1.51ZM327.08,134.38c0-.22-.24-.33-.71-.33-.76.15-1.46.52-2,1.08-1.06.84-1.98,1.86-2.71,3,.12.03.24.05.36.05,1.02-.12,1.99-.5,2.81-1.12.99-.54,1.76-1.41,2.2-2.45.03-.07.05-.14.05-.21v-.02Z"/>
        <path class="cls-1" d="M332,133.26c.5,0,.74.2.74.58,0,.12-.02.24-.08.34-1.26,1.58-2.28,3.34-3,5.23,4.3-4.3,6.91-6.45,7.84-6.45h.25c.51,0,.77.23.77.69,0,.1-.02.19-.05.28-.04.09-.41.59-1.11,1.5-.75.87-1.44,1.8-2.06,2.77-.48.64-.78,1.41-.85,2.21,0,.59.13.89.39.89.81,0,2.23-1.12,4.24-3.35,3.02-3.35.1-.12.19-.25.28-.34.44-.5.5-.5s.08.09.08.27c-.04.28-.18.53-.38.73-2.29,2.6-3.92,3.9-4.88,3.9-.91,0-1.36-.5-1.36-1.5.07-1.22.45-2.4,1.11-3.43l1.77-2.88c-1.22.88-2.34,1.89-3.35,3-1,1.1-1.87,2.17-2.67,3.2s-1.27,1.55-1.4,1.55c-.26,0-.51-.12-.65-.34-.17-.26-.25-.56-.24-.86.03-.48.16-.94.36-1.37.24-.58.55-1.27.92-2.08l-1.66,1.74c-.41.41-.66.61-.76.61s-.16-.06-.16-.18c.02-.16.1-.3.22-.4.63-.63,1.23-1.3,1.78-2,.48-.63,1.48-1.83,3-3.6.11-.17.3-.28.5-.3Z"/>
        <path class="cls-1" d="M366.1,130.16c-.55.25-1.15.39-1.76.42-.49,0-.73-.11-.73-.31s.27-.2.82-.22c.4,0,.79-.06,1.17-.19.63-.3,1.02-.94,1-1.64,0-.4-.11-.8-.3-1.16-.59-1-2-1.58-4.29-1.58-1.34,0-2.66.21-3.94.6-1.22.34-2.35.97-3.29,1.82-.74.55-1.22,1.38-1.33,2.29,0,1.07,1.06,1.85,3.18,2.35l3.27.61c1.04.14,2.03.48,2.94,1,.81.44,1.3,1.29,1.27,2.21,0,.42-.07.84-.19,1.25-.59,2-2.12,3.52-4.57,4.57-2.3.96-4.77,1.42-7.26,1.36-.69,0-1.38-.03-2.07-.11.73.39,1.51.68,2.32.86.07,0,.11.05.11.11s-.19.25-.58.25c-1.06-.14-2.05-.62-2.82-1.36-1.24-.13-2.42-.57-3.44-1.28-.55-.47-1.01-1.06-1.33-1.71-.36-.62-.57-1.33-.61-2.05-.02-.53.11-1.06.36-1.53.37-.85,1.19-1.41,2.11-1.46.64,0,1,.54,1.13,1.63.26,2.11.44,3.31.53,3.6.26.88.75,1.67,1.41,2.3.83.17,1.67.26,2.52.25,2.02,0,4.01-.41,5.87-1.19,1.73-.63,3.19-1.82,4.16-3.38.31-.45.49-.98.52-1.52,0-.87-.76-1.55-2.29-2l-4.88-1.11c-.89-.18-1.71-.59-2.39-1.19-.57-.47-.9-1.17-.91-1.91,0-1.11.7-2.22,2.08-3.33,1.15-.91,2.46-1.59,3.87-2,1.45-.46,2.96-.7,4.48-.71,1.24-.04,2.48.18,3.64.64,1.09.36,1.83,1.36,1.86,2.51.03,1.05-.64,2-1.64,2.31ZM348.26,142.51c-1.15-1.37-1.87-3.06-2.05-4.84-.16-1.17-.32-1.75-.47-1.75-.15,0-.29.05-.41.13-.18.14-.31.33-.39.54-.14.34-.21.71-.19,1.08-.02,1.37.51,2.69,1.49,3.65.56.56,1.26.97,2.02,1.19h0Z"/>
        <path class="cls-1" d="M374.13,133.73l.39-.08c.22,0,.43.09.58.25.19.17.28.3.28.39-.52.92-1.09,1.82-1.72,2.67-1.14,1.69-1.72,2.87-1.72,3.53,0,.06,0,.11,0,.17.09.42.3.64.61.64.96,0,2.71-1.59,5.26-4.77.05-.07.12-.11.2-.11.07,0,.11.07.11.21-.03.2-.11.39-.25.54-2.37,3.16-4.17,4.73-5.4,4.73-.16,0-.32-.02-.47-.08-.78-.26-1.28-1.01-1.22-1.83,0-.32.04-.63.11-.94l-1.72,1.66c-.63.7-1.45,1.21-2.37,1.44-.5,0-.99-.17-1.39-.47-.48-.33-.76-.88-.75-1.46,0-1.33.94-2.95,2.82-4.84,1.89-1.87,3.61-2.81,5.18-2.81.5-.06.99.19,1.22.64l.14.37c.07.1.09.15.11.15ZM365.85,140.55c0,.67.23,1,.69,1,1.07,0,2.53-1.17,4.38-3.51l2.94-4.05c-.15-.26-.43-.4-.73-.38-1.12,0-2.62.87-4.48,2.61s-2.8,3.18-2.8,4.33Z"/>
        <path class="cls-1" d="M377.4,140.63c0,.55.3.83.91.83.87-.1,1.68-.45,2.36-1,1.06-.73,2-1.62,2.8-2.63.22-.29.39-.44.52-.44s.2.05.2.16c-.31.53-.69,1.02-1.14,1.44-1.85,2-3.39,3-4.63,3-.55.02-1.09-.13-1.55-.43-.43-.3-.67-.81-.63-1.33.02-.72.18-1.43.47-2.09.74-1.64,1.6-3.22,2.57-4.74,2.16-3.5,3.7-5.26,4.6-5.26.21,0,.41.08.57.21.17.1.28.27.32.46l-2.45,3.29c-1.21,1.63-2.04,2.8-2.51,3.51l-1,1.59c-.23.35-.4.62-.51.82s-.24.44-.39.76c-.32.57-.49,1.2-.51,1.85Z"/>
        <path class="cls-1" d="M390.8,142.18c-.2.02-.39.02-.59,0-.34-.01-.66-.14-.92-.36-.29-.22-.46-.57-.45-.93,0-.43.08-.85.21-1.26.13-.46.23-.81.29-1-2.13,2.47-3.79,3.7-5,3.71-.76,0-1.17-.47-1.24-1.41v-.2c.16-1.18.66-2.3,1.43-3.21-.58.52-1.12,1.08-1.63,1.66-.07.08-.18.12-.28.11-.07,0-.11,0-.11-.14.05-.17.13-.33.25-.47l3.82-4.48c.34-.48.88-.78,1.47-.83.5,0,.75.16.75.49,0,.14-.07.27-.17.36-1.03,1.05-1.96,2.19-2.78,3.41-1.12,1.59-1.67,2.76-1.67,3.52,0,.33.11.5.33.5.77,0,1.9-.77,3.38-2.3.51-.52,1.47-1.66,2.88-3.42,1.4-1.77,2.32-2.65,2.77-2.65.67,0,1,.26,1,.78-.28.6-.67,1.15-1.16,1.6-1.05,1.28-1.86,2.32-2.41,3.12-.46.57-.75,1.27-.83,2,0,.5.14.75.42.75.15,0,.3-.05.44-.11,1.77-.96,3.33-2.29,4.57-3.88.08-.11.2-.18.33-.19.11,0,.17.06.17.18-.02.15-.09.29-.2.4-.86.99-1.79,1.92-2.79,2.78-.65.64-1.43,1.14-2.28,1.47Z"/>
        <path class="cls-1" d="M403.93,133.62c2.07-3.33,3.51-5,4.32-5,.19.01.37.06.54.13.23.08.35.2.35.37-.02.13-.06.25-.14.36-1.48,1.81-2.57,3.17-3.29,4.07-2.18,2.75-3.38,4.73-3.6,5.93-.06.26-.09.52-.09.78,0,.83.34,1.24,1,1.24,1.36,0,3.15-1.26,5.34-3.79.13-.15.29-.26.47-.32.13,0,.2,0,.2.09-.02.13-.08.25-.17.34-2.14,2.56-4.04,3.99-5.7,4.29-.13.01-.26.01-.39,0-.5.03-.99-.19-1.29-.6-.28-.37-.43-.82-.43-1.28.01-.59.11-1.17.31-1.72l-2.25,2.24c-.62.72-1.46,1.22-2.39,1.41-.53.02-1.05-.14-1.46-.47-.46-.34-.71-.89-.69-1.46,0-1.33.94-2.95,2.82-4.84,1.89-1.87,3.61-2.81,5.18-2.81.41-.05.81.11,1.08.42.13.19.23.4.28.62ZM395.76,140.55c0,.67.23,1,.69,1,.8,0,2.13-1.09,4-3.26.33-.39,1.43-1.84,3.32-4.35-.14-.23-.4-.36-.67-.33-1.14,0-2.65.87-4.51,2.61s-2.83,3.18-2.83,4.33h0Z"/>
      </g>
    </g>
  </g>
</svg>