<?xml version="1.0" encoding="UTF-8"?>
<svg id="Layer_2" data-name="Layer 2" xmlns="http://www.w3.org/2000/svg" viewBox="0 0 1120.32 225.44">
  <defs>
    <style>
      .cls-1 {
        fill: #fff;
      }
    </style>
  </defs>
  <g id="Layer_1-2" data-name="Layer 1">
    <path class="cls-1" d="M72.31,200.31l5.56,11.08c-24.52,10.15-51.28,14.82-77.87,13.95V4.24c0-10.05,51.08.65,58.41,2.78,5.66,1.64,15.05,4.79,19.39,8.43,4.39,3.68,2.18,2.33.1,5.48-5.62,8.55-21.75,14.78-25.06,26.42-1.69,2.02-2.13,4.8-2.78,5.56-31.82,36.99-21.59,103.08,11.12,136.28,4.18,4.24,4.9,7.06,11.12,11.12Z"/>
    <path class="cls-1" d="M83.44,186.4c-2.01-1.52-7.66-7.98-11.12-11.12-27.9-41.22-27.07-87.87,2.78-127.93,1.53-2.05,5.14-8.07,5.56-8.34.7-.46,5.09.18,8.11-1.49,11.81-6.55,8.36-11.1,20.85,4.52,34.95,43.7,31.07,115.08-11.28,152.43-1.52.25-12.73-6.42-14.9-8.06Z"/>
    <path class="cls-1" d="M258.64,105.77l44.49-.04c-1.47-26.59,25.98-77.5,50.18-87.48,8.09-3.34,21.61-1.68,12,6.43-4.8,4.06-10.97,6.59-16.34,11.47-49.48,45.01-47.16,112.44,2.91,155.75,5.29,4.58,30.6,17.36,8.22,17-24.02-.39-61.48-64.4-56.98-89.23l-42.9-.08c-2.59,13.87-5.33,28.86-11.32,41.77-6.35,13.68-37.32,55.39-54.26,45.93-6.9-3.85,12.68-13.15,15.27-15.39,53.61-46.27,50.76-116.14-2.71-161.25-4.32-3.64-27.91-14.51-5.52-14.15,23.54.38,62.65,64.73,56.95,89.27Z"/>
    <path class="cls-1" d="M52.84,47.34c4.52-5.4,19.55-19.42,26.91-24.55C108.81,2.53,142.93-4.72,177.39,4.84c1.61.45,13.97,2.86,10.37,6.36-12,10.24-25.94-.47-41.78-.21-23.08.37-49.64,11.2-65.32,28.01-.42.28-4.03,6.29-5.56,8.34-16.72,6.6-26.54,37.38-27.91,54.13-1.63,20.03,3.71,56.1,18.28,71.04,2.72,2.79,6.33,2.29,6.85,2.76,3.46,3.15,9.11,9.61,11.12,11.12-.9,4.06,10.7,12.31,13.25,13.77,12.99,7.42,34.23,13.99,49.3,14.25,15.72.26,32.05-10.66,43.08,1.19-35.01,18.09-73.33,7.61-106.09-10.06-3.11-1.68-10.12-4.88-10.66-5.24-6.22-4.06-6.95-6.89-11.12-11.12-18.03-30.88-29.37-58.2-24.31-95.23l13.19-41.05c.65-.76,1.09-3.54,2.78-5.56Z"/>
    <path class="cls-1" d="M673.04,22.31c.31-.3,7.9-1.13,8.55,1.72l35.94,62.25V26.49c0-1.81,5.96-5.34,8.34-4.17v80.65c-4.76.54-6.18.45-9.68-2.84-12.32-11.57-21.59-49.45-37.6-61.13v63.97h-5.56c2.18-10.34-2.89-77.84,0-80.65Z"/>
    <path class="cls-1" d="M406.05,22.31c50.15-9.72,70.89,62.69,25.01,79.24-4.06,1.46-25.01,6.93-25.01.03V22.31ZM414.4,97.41c45.82-.65,45.24-68.17,0-66.75v66.75Z"/>
    <path class="cls-1" d="M1017.27,122.98c51.05-7,62.21,72.29,12.99,79.92-57.24,8.87-63.53-72.99-12.99-79.92ZM1014.37,131.43c-46.57,9.57-20.95,85.46,24.95,61.08,32.29-17.15,14.67-69.23-24.95-61.08Z"/>
    <path class="cls-1" d="M928.27,122.98c48.43-6.62,63.18,72.14,12.99,79.92-57.26,8.87-64.2-72.92-12.99-79.92ZM922.54,131.38c-34.64,7.98-26.63,71.9,15.39,65.62,43.99-6.57,34.77-77.18-15.39-65.62Z"/>
    <path class="cls-1" d="M570.14,203.09l-8.33.02v-33.4s-27.84,0-27.84,0v33.37c-8.84.63-7.95-6.1-8.48-12.36-.77-9.18-.83-61.83,2.97-65.49,4.06-3.91,5.03.24,5.53,4.11.73,5.7-1.15,30.91-.02,32.05l26.22.03,1.61-36.22,8.33.02v77.87Z"/>
    <path class="cls-1" d="M616.76,122.95c50.26-5.89,59.31,76.44,7.54,80.2-55.19,4.02-57.9-74.3-7.54-80.2ZM611.1,131.43c-38.9,7.94-27.75,70.11,12.53,65.59,43.68-4.91,37.76-75.86-12.53-65.59Z"/>
    <path class="cls-1" d="M659.12,36.21c-16.23-5.03-21.92-11.89-39.59-4.8-38.47,15.44-21.47,75.38,23.69,65.37,15.54-3.45,9.4-17.51,10.36-29.97h8.32c-.13,18.32,5.03,29.25-15.15,36.28-63.29,22.07-80.02-89.73-5.63-80.82,7.8.93,17.87,4.55,17.99,13.94Z"/>
    <path class="cls-1" d="M884.41,186.4c-1.41,10.46-7.31,16.56-18.15,16.89-7.96.25-13.08-4.75-16.62-4.75-5.24,0-10.44,7.35-21.65,4-3.64-1.09-13.11-12.27-13.11-14.76v-62.58h5.56v57.01c0,16.14,25.03,18.61,25.03,8.34v-65.36h8.34v65.36c0,7.46,21.7,8.52,25.03-4.17h5.56Z"/>
    <path class="cls-1" d="M951.16,86.28V22.31h5.56v80.65l-9.58-5.72-34.92-58.25v63.97h-5.56V22.31c5.23-1.19,5.38,1.77,7.88,4.64,13.71,15.74,20.59,44.23,36.62,59.33Z"/>
    <path class="cls-1" d="M1073.53,22.31c21.25-2.24,43.95.54,44.74,26.4.7,22.95-15.8,23.32-16.89,28.02-1.05,4.51,15.43,18.63,13.85,26.22-18.21-4.46-12.23-32.73-36.15-25.03-2.77,2.67,5.89,27.95-5.55,25.04V22.31ZM1079.08,69.61c35.86,10.19,47.27-38.02,12.27-41.68-21.13-2.21-9.4,27.69-12.27,41.68Z"/>
    <path class="cls-1" d="M851.04,26.49c2.4-7.78,33.89-2.83,41.73-4.16v8.32s-33.44,1.61-33.44,1.61l.03,29.01c5.51.93,32.45-1.92,33.4,1.4,1.85,6.45-5.97,3.99-9.72,4.14-7.87.32-15.84-.23-23.69-.01v30.62c1.04,1.03,23.95-.7,29.27-.02s4.49-.95,4.12,5.57h-41.72c3.67-19.03-4.93-60.5,0-76.48Z"/>
    <path class="cls-1" d="M839.9,36.21c-16.65-5.43-23.79-12.32-41.72-4.16-34.73,15.8-21.3,72.52,23.51,65.2,5.38-.88,16.55-10.07,18.21-8.17,5.34,6.09-7.69,12.2-12.66,13.7-49.93,15.16-77.27-52.05-34.38-76.07,12.21-6.84,43.62-8.56,47.04,9.5Z"/>
    <path class="cls-1" d="M1073.53,203.09v-77.87c61.95-4.9,62.82,81.66,0,77.87ZM1079.1,194.75c46.6,3.45,46.19-63.03,0-63.97v63.97Z"/>
    <path class="cls-1" d="M553.44,36.21c-3.29,3.87-7.63-8.74-15.35-8.19-4.12.3-8.18,3.55-9.28,7.42-4.5,15.87,21.39,19.57,28.99,28.42,26.49,30.87-33.24,64.81-43.27,19.66,12.43-2.95,5.55,7.48,14.51,11.87,14.6,7.16,30.1-2.07,27.22-18.7-3.18-18.42-40.13-16.85-35.74-41.18,4.24-23.49,42.62-10.71,32.92.7Z"/>
    <path class="cls-1" d="M508.96,22.31c1.78,15.7-35.33,4.14-36.2,9.95l.03,29c5.48.94,35.23-1.93,36.18,1.4,1.85,6.46-5.97,3.99-9.72,4.14-8.8.36-17.69-.25-26.46-.01v30.62c1.13,1.13,26.34-.75,32.05-.02,5.07.65,4.49-.95,4.12,5.57h-41.72V22.31h41.72Z"/>
    <path class="cls-1" d="M1062.41,22.31c4.52,3.41-.04,5.05-4.12,5.57-7.34.94-24.67-2.11-29.43,1.21-4.13,2.88-4.22,28.01,0,30.95,5.75,4.01,32.35-1.6,33.57,2.63,1.85,6.46-5.97,3.99-9.72,4.14-8.79.37-17.7-.26-26.46-.01v30.62c1.13,1.13,26.34-.75,32.05-.02,5.07.65,4.49-.95,4.12,5.57h-41.72V22.31h41.72Z"/>
    <path class="cls-1" d="M1012.35,22.31l.02,8.33c-.99,1.03-19.48-.96-19.48.01v72.31h-8.34V30.66c0-.97-18.5,1.02-19.48-.01l.02-8.33h47.28Z"/>
    <path class="cls-1" d="M758.9,125.6c2.94,2.11,15.72,35.81,21.22,35.72,7.57-9.5,12.26-20.98,19.21-30.87,1.03-1.47,3.24-10.18,7.19-5.21,4.25,5.34-18.87,34.58-20.97,41.57-3.7,12.31,3.15,26.51-5.47,36.26-6.72,1.33-3.98-5.41-4.14-9.68-.33-8.79,1.33-17.99-1.25-26.58-3.11-10.36-19.81-27.61-23.74-37.46-2.15-5.4,5.65-5.4,7.95-3.75Z"/>
    <path class="cls-1" d="M424.72,150.83c37.37-8.42,45.76,42.25,17.64,51.01-39.23,12.21-49.22-43.89-17.64-51.01ZM427.57,156.3c-23.88,4.82-18.65,46.55,9.8,40.74,25.24-5.16,18.63-46.48-9.8-40.74Z"/>
    <path class="cls-1" d="M723.11,125.22v69.53c0,1.39,26.54-1.35,27.83.01v8.32c-6.27-.64-36.17,2.62-36.17-4.16v-73.7h8.34Z"/>
    <path class="cls-1" d="M478.36,200.31l-8.33.02c4.08-22.73-14.72-69.75,19.44-72.31,3.71,13.8-8.83,6.1-11.13,8.31-.6.57-.24,15.94.32,16.55,1.29,1.41,7.31-1.5,8.07,1.56,2.04,8.19-1.67,7.47-8.36,6.94v38.94Z"/>
    <path class="cls-1" d="M675.83,125.22v68.14c0,7.63,29.5,1.73,30.61,5.59,1.85,6.46-5.97,3.99-9.72,4.14-7.85.33-15.82-.16-23.65-.02-2.65-2.76-3.88-65.32-2.81-73.73.65-5.07-.94-4.49,5.57-4.12Z"/>
    <rect class="cls-1" x="572.92" y="22.31" width="5.56" height="80.65"/>
    <path class="cls-1" d="M878.85,186.4c2.04-7.77-2.72-60.01,1.42-61.2,6.45-1.85,3.99,5.98,4.14,9.72.58,14.37,1.81,38.06,0,51.48h-5.56Z"/>
  </g>
</svg>