<svg xmlns="http://www.w3.org/2000/svg" viewBox="0 0 279.31 66.54"><g id="Capa_2" data-name="Capa 2"><g id="Capa_1-2" data-name="Capa 1"><path d="M23.5,45.61l-3.26,3.22a9.58,9.58,0,0,0-7.19-3.27,8.24,8.24,0,0,0-6,2.38,7.76,7.76,0,0,0-2.42,5.77,8,8,0,0,0,2.51,6,8.55,8.55,0,0,0,6.2,2.44,7.61,7.61,0,0,0,4-1A7.16,7.16,0,0,0,20,58H13V53.62H25.2l0,1a11.89,11.89,0,0,1-1.65,6A11.52,11.52,0,0,1,19.31,65a12.09,12.09,0,0,1-6.15,1.51A13.65,13.65,0,0,1,6.42,64.9a12,12,0,0,1-4.69-4.68A13,13,0,0,1,0,53.67a12.16,12.16,0,0,1,3.19-8.39A12.55,12.55,0,0,1,13,41a15,15,0,0,1,5.92,1.17A13.79,13.79,0,0,1,23.5,45.61Z" fill="#fff"></path><path d="M27.41,41h4.51V65.93H27.41Z" fill="#fff"></path><path d="M43.42,47.51a9.58,9.58,0,0,1,4.78,1.27A9.34,9.34,0,0,1,53,56.94a9.37,9.37,0,0,1-1.27,4.75,9.12,9.12,0,0,1-3.44,3.45,9.5,9.5,0,0,1-4.8,1.25,9,9,0,0,1-6.59-2.75A9.53,9.53,0,0,1,37.2,50,9,9,0,0,1,43.42,47.51Zm.08,4.24A4.66,4.66,0,0,0,40,53.21a5.78,5.78,0,0,0,0,7.53,4.6,4.6,0,0,0,3.49,1.46A4.67,4.67,0,0,0,47,60.73a5.79,5.79,0,0,0,0-7.54A4.7,4.7,0,0,0,43.5,51.75Z" fill="#fff"></path><path d="M59.62,41V50a8.53,8.53,0,0,1,2.65-1.83,7.49,7.49,0,0,1,3-.61,7.86,7.86,0,0,1,6,2.66A9.66,9.66,0,0,1,73.73,57a9.44,9.44,0,0,1-2.54,6.71,8,8,0,0,1-6,2.7,7.3,7.3,0,0,1-2.89-.56A8.57,8.57,0,0,1,59.62,64v1.9H55.15V41Zm4.74,10.63a4.72,4.72,0,0,0-3.53,1.45,5.24,5.24,0,0,0-1.41,3.8,5.39,5.39,0,0,0,1.41,3.87,4.66,4.66,0,0,0,3.53,1.47,4.58,4.58,0,0,0,3.47-1.5,5.89,5.89,0,0,0,0-7.61A4.57,4.57,0,0,0,64.36,51.67Z" fill="#fff"></path><path d="M90,48h4.5v18H90V64a8.54,8.54,0,0,1-2.65,1.8,7.17,7.17,0,0,1-2.87.56,8,8,0,0,1-6-2.7A9.44,9.44,0,0,1,75.93,57a9.62,9.62,0,0,1,2.46-6.81,7.84,7.84,0,0,1,6-2.66,7.48,7.48,0,0,1,3,.61A8.45,8.45,0,0,1,90,50Zm-4.74,3.69a4.54,4.54,0,0,0-3.47,1.48,5.89,5.89,0,0,0,0,7.61,4.54,4.54,0,0,0,3.45,1.5,4.66,4.66,0,0,0,3.53-1.47,5.43,5.43,0,0,0,1.4-3.87,5.27,5.27,0,0,0-1.4-3.8A4.73,4.73,0,0,0,85.27,51.67Z" fill="#fff"></path><path d="M96.71,41h4.51V65.93H96.71Z" fill="#fff"></path><path d="M127.46,46.17l-1.92,1.47a10.45,10.45,0,0,0-3.8-3.13,11.15,11.15,0,0,0-4.88-1.07,10.76,10.76,0,0,0-5.38,1.39,10.18,10.18,0,0,0-3.84,3.75,10.47,10.47,0,0,0-1.36,5.29,9.93,9.93,0,0,0,3,7.41,10.54,10.54,0,0,0,7.68,3,10.8,10.8,0,0,0,8.53-4l1.92,1.45a12.29,12.29,0,0,1-4.53,3.57,14.24,14.24,0,0,1-6.07,1.26,12.65,12.65,0,0,1-10-4.23,12.79,12.79,0,0,1-3.09-8.65,12,12,0,0,1,3.74-9,12.88,12.88,0,0,1,9.37-3.64A13.84,13.84,0,0,1,123,42.39,12,12,0,0,1,127.46,46.17Z" fill="#fff"></path><path d="M139,47.51a8.89,8.89,0,0,1,6.87,3,9.64,9.64,0,0,1-.13,13.07,9.5,9.5,0,0,1-13.49,0,9.6,9.6,0,0,1-.14-13A8.88,8.88,0,0,1,139,47.51Zm0,2.26A6.66,6.66,0,0,0,134,51.9a7.13,7.13,0,0,0-2.07,5.15,7.28,7.28,0,0,0,.94,3.63,6.71,6.71,0,0,0,2.55,2.6,7.21,7.21,0,0,0,7.05,0,6.67,6.67,0,0,0,2.56-2.6,7.29,7.29,0,0,0,.95-3.63,7.1,7.1,0,0,0-2.09-5.15A6.66,6.66,0,0,0,139,49.77Z" fill="#fff"></path><path d="M150.44,48h2.31v3.21a9.83,9.83,0,0,1,3.08-2.77,7.61,7.61,0,0,1,3.66-.91,6.38,6.38,0,0,1,3.57,1,6.14,6.14,0,0,1,2.3,2.76,14.46,14.46,0,0,1,.74,5.4v9.24h-2.3V57.36a21.15,21.15,0,0,0-.26-4.14A4.55,4.55,0,0,0,162,50.54a4.65,4.65,0,0,0-3-.9A5.73,5.73,0,0,0,155.27,51a6.54,6.54,0,0,0-2.19,3.44,24.61,24.61,0,0,0-.33,4.88v6.59h-2.31Z" fill="#fff"></path><path d="M168.24,48h2.3v3.21a9.83,9.83,0,0,1,3.08-2.77,7.64,7.64,0,0,1,3.66-.91,6.38,6.38,0,0,1,3.57,1,6.14,6.14,0,0,1,2.3,2.76,14.42,14.42,0,0,1,.75,5.4v9.24h-2.32V57.36a21.41,21.41,0,0,0-.25-4.14,4.6,4.6,0,0,0-1.54-2.68,4.66,4.66,0,0,0-3-.9A5.72,5.72,0,0,0,173.06,51a6.52,6.52,0,0,0-2.18,3.44,23.64,23.64,0,0,0-.34,4.88v6.59h-2.3Z" fill="#fff"></path><path d="M202,60l2,1a10.52,10.52,0,0,1-2.21,3,9,9,0,0,1-2.83,1.76,9.86,9.86,0,0,1-3.55.6,8.57,8.57,0,0,1-6.87-2.88A9.73,9.73,0,0,1,186,57a9.58,9.58,0,0,1,2.1-6.09,8.6,8.6,0,0,1,7.12-3.4A8.86,8.86,0,0,1,202.58,51a9.79,9.79,0,0,1,2,6.13H188.41a7.24,7.24,0,0,0,2,5.13,6.35,6.35,0,0,0,4.77,2,7.6,7.6,0,0,0,2.67-.48,6.87,6.87,0,0,0,2.21-1.26A10.7,10.7,0,0,0,202,60Zm0-4.84a7.54,7.54,0,0,0-1.34-3,6.33,6.33,0,0,0-2.34-1.78,7.19,7.19,0,0,0-3.06-.68,6.6,6.6,0,0,0-4.54,1.7,7.79,7.79,0,0,0-2.1,3.71Z" fill="#fff"></path><path d="M225,51.7l-1.83,1.14a7.67,7.67,0,0,0-6.48-3.15,7.49,7.49,0,0,0-5.45,2.11A6.91,6.91,0,0,0,209,56.93a7.35,7.35,0,0,0,1,3.69,7,7,0,0,0,2.74,2.68,8.27,8.27,0,0,0,10.36-2.19L225,62.32a8.6,8.6,0,0,1-3.45,3,11,11,0,0,1-4.95,1.07,9.75,9.75,0,0,1-7.06-2.71,8.79,8.79,0,0,1-2.8-6.58A9.39,9.39,0,0,1,208,52.25a9.2,9.2,0,0,1,3.6-3.48,10.49,10.49,0,0,1,5.14-1.26,10.82,10.82,0,0,1,3.44.55A9.38,9.38,0,0,1,223,49.48,7.68,7.68,0,0,1,225,51.7Z" fill="#fff"></path><path d="M230.24,41.31h2.31V48h3.66v2h-3.66v16h-2.31V50h-3.15V48h3.15Z" fill="#fff"></path><path d="M239.49,40.58a1.91,1.91,0,0,1,1.36,3.25,1.84,1.84,0,0,1-1.36.56,1.79,1.79,0,0,1-1.33-.56,1.84,1.84,0,0,1-.56-1.34,1.86,1.86,0,0,1,.56-1.35A1.83,1.83,0,0,1,239.49,40.58ZM238.35,48h2.31v18h-2.31Z" fill="#fff"></path><path d="M252.16,47.51a8.9,8.9,0,0,1,6.88,3,9.65,9.65,0,0,1-.14,13.07,9.5,9.5,0,0,1-13.49,0,9.63,9.63,0,0,1-.14-13A8.89,8.89,0,0,1,252.16,47.51Zm0,2.26a6.66,6.66,0,0,0-5,2.13,7.43,7.43,0,0,0-1.12,8.78,6.64,6.64,0,0,0,2.55,2.6,7.21,7.21,0,0,0,7.05,0,6.71,6.71,0,0,0,2.55-2.6,7.29,7.29,0,0,0,.95-3.63,7.1,7.1,0,0,0-2.09-5.15A6.66,6.66,0,0,0,252.15,49.77Z" fill="#fff"></path><path d="M263.65,48H266v3.21A9.8,9.8,0,0,1,269,48.42a7.64,7.64,0,0,1,3.66-.91,6.35,6.35,0,0,1,3.57,1,6.14,6.14,0,0,1,2.3,2.76,14.42,14.42,0,0,1,.75,5.4v9.24H277V57.36a21.15,21.15,0,0,0-.26-4.14,4.55,4.55,0,0,0-1.54-2.68,4.65,4.65,0,0,0-3-.9A5.75,5.75,0,0,0,268.47,51a6.52,6.52,0,0,0-2.18,3.44,23.85,23.85,0,0,0-.33,4.88v6.59h-2.31Z" fill="#fff"></path><path d="M56.75,29.16a8.28,8.28,0,0,0,2.55-6C59.3,20.4,58,14.79,48.68,15H47.9a4.28,4.28,0,0,0-3.11,1.31,4.38,4.38,0,0,0,0,6.21,4.24,4.24,0,0,0,3.11,1.27l.77,0c.3,0,.6,0,.9,0,8.69,1.83,2,9.12,1.84,9.29a18,18,0,0,0,3.05-1.93h0s0,0,0,0a15.49,15.49,0,0,0,1.31-1.14c.3-.26.61-.54.91-.85a0,0,0,0,1,0,0Z" fill="#fff"></path><path d="M49.58,33.84l1.17-1.3C51.86,31.31,53.58,28.77,53,27c-.35-1.07-1.57-1.84-3.62-2.27l-.72,0h-.3a8.68,8.68,0,0,1-10.86-1.19,8.5,8.5,0,0,1,0-12.16,8.79,8.79,0,0,1,12.42,0c.09.09.47.44.57.52a4.16,4.16,0,0,0,3.1,1.3,4.21,4.21,0,0,0,3.1-1.29A4.21,4.21,0,0,0,58,8.78a4.3,4.3,0,0,0-1.28-3.12c-.12-.1-.49-.45-.56-.52A17,17,0,0,0,43.72,0,16.88,16.88,0,0,0,31.31,5.15a16.85,16.85,0,0,0-5.14,12.28,16.85,16.85,0,0,0,5.14,12.28,17,17,0,0,0,8.2,4.68c.84,1.82,1.77,3.89,2.42,5.33.94,2.06,2.48,2.06,3.42,0l2.41-5.3A14.27,14.27,0,0,0,49.58,33.84Z" fill="#fff"></path></g></g></svg>