<?xml version="1.0" encoding="UTF-8"?>
<svg id="Layer_2" data-name="Layer 2" xmlns="http://www.w3.org/2000/svg" viewBox="0 0 799.46 205.99">
  <defs>
    <style>
      .cls-1 {
        fill: #fff;
      }

      .cls-2 {
        fill: none;
        stroke: #fff;
        stroke-miterlimit: 10;
        stroke-width: 6px;
      }
    </style>
  </defs>
  <g id="Layer_1-2" data-name="Layer 1">
    <path class="cls-1" d="M287.08,131.15c-9.25,0-17.15-1.57-23.7-4.7-6.29-2.93-11.74-7.4-15.85-13-4.09-5.64-7.09-12-8.84-18.74-1.89-7.14-2.84-14.5-2.81-21.89V13.07h22.63v59.78c-.01,4.75.51,9.49,1.57,14.12.95,4.33,2.56,8.48,4.79,12.31,2.09,3.57,5.08,6.54,8.67,8.59,3.63,2.09,8.14,3.13,13.54,3.13s10.22-1.07,13.79-3.22c3.56-2.13,6.54-5.11,8.67-8.67,2.27-3.8,3.89-7.96,4.79-12.3,1-4.6,1.5-9.29,1.49-14V13.07h22.63v59.78c.03,7.62-.98,15.21-3,22.55-1.81,6.74-4.89,13.08-9.08,18.66-4.17,5.41-9.6,9.72-15.82,12.55-6.49,3.03-14.31,4.55-23.47,4.54Z"/>
    <path class="cls-1" d="M361.42,130.33V13.07h22.79v97.27h59.79v20h-82.58Z"/>
    <path class="cls-1" d="M495.2,131.98c-6.45.09-12.85-1.1-18.83-3.51-10.71-4.34-19.18-12.87-23.45-23.6-2.12-5.35-3.18-11.06-3.14-16.82-.07-7.78,1.83-15.45,5.53-22.3,3.65-6.77,9.07-12.41,15.69-16.33,6.78-4.09,14.9-6.14,24.36-6.13,9.46,0,17.5,2.05,24.12,6.13,6.52,3.89,11.88,9.46,15.52,16.12,3.64,6.67,5.52,14.15,5.45,21.75,0,1.42,0,2.75-.16,4s-.22,2.32-.33,3.19h-66.73c.19,4.11,1.48,8.09,3.72,11.54,2.08,3.11,4.92,5.65,8.26,7.35,3.29,1.7,6.94,2.59,10.65,2.58,4.42.03,8.77-1.08,12.63-3.22,3.62-1.84,6.45-4.92,8-8.67l18.82,5.28c-2.04,4.49-5.03,8.49-8.75,11.73-4.03,3.51-8.68,6.22-13.71,8-5.67,1.99-11.64,2.98-17.65,2.91ZM472.57,80.61h45.26c-.34-3.98-1.63-7.82-3.75-11.21-1.98-3.12-4.74-5.68-8-7.43-3.39-1.79-7.17-2.7-11-2.66-3.77-.05-7.49.87-10.81,2.66-3.23,1.76-5.96,4.32-7.93,7.43-2.13,3.38-3.42,7.23-3.77,11.21Z"/>
    <path class="cls-1" d="M548.08,105.05c-.1-5.23,1.56-10.35,4.71-14.52,3.41-4.34,7.91-7.69,13.05-9.71,6.17-2.46,12.76-3.65,19.4-3.51,3.71,0,7.41.28,11.07.83,3.35.44,6.63,1.33,9.74,2.64v-4.77c0-5.29-1.6-9.4-4.79-12.32s-7.99-4.38-14.4-4.38c-4.68-.03-9.33.81-13.71,2.48-4.75,1.89-9.29,4.27-13.54,7.1l-6.94-14.37c5.33-3.71,11.2-6.58,17.41-8.5,6.13-1.84,12.51-2.76,18.91-2.73,12.33,0,21.94,3,28.82,9s10.32,14.71,10.32,26.13v27.19c0,2.28.42,3.91,1.24,4.88,1.07,1.09,2.52,1.74,4.05,1.8v18c-2,.33-3.79.61-5.37.82-1.32.21-2.66.27-4,.17-4.4,0-7.73-.96-10-2.89-2.18-1.82-3.61-4.38-4-7.19l-.5-4.46c-3.8,4.8-8.66,8.65-14.2,11.24-5.36,2.6-11.23,3.96-17.18,4-5.36.08-10.66-1.15-15.44-3.59-4.38-2.22-8.09-5.57-10.74-9.71-2.6-4.07-3.96-8.8-3.91-13.63ZM601.92,109.19c1.21-1.05,2.22-2.3,3-3.7.67-1.07,1.07-2.28,1.16-3.54v-8.54c-2.78-1.11-5.65-1.94-8.59-2.49-2.88-.57-5.81-.87-8.75-.89-5.73,0-10.44,1.21-14.12,3.62-3.68,2.41-5.53,5.61-5.54,9.59.01,2.2.64,4.34,1.81,6.2,1.26,2.03,3.06,3.68,5.2,4.75,2.6,1.26,5.46,1.86,8.35,1.77,3.34,0,6.65-.66,9.74-1.93,2.86-1.1,5.48-2.74,7.71-4.84h.03Z"/>
    <path class="cls-1" d="M700.49,62.94c-6.26,0-12.46,1.31-18.17,3.88-5.01,2.22-9.1,6.11-11.56,11v52.52h-22V44.61h20.32v17.67c2.76-5.54,6.81-10.34,11.81-14,4.42-3.3,9.69-5.27,15.19-5.67.88.11,1.76.13,2.64.08.62-.06,1.24.03,1.82.25l-.05,20Z"/>
    <path class="cls-1" d="M793.14,130.33h-22.13v-47.86c0-6.83-1.18-11.83-3.55-15s-5.75-4.75-10.16-4.72c-3.14.04-6.22.81-9,2.26-3.07,1.53-5.81,3.63-8.09,6.2-2.39,2.67-4.26,5.77-5.53,9.12v50h-22V44.61h20v16c2.14-3.64,5-6.81,8.4-9.32,3.57-2.58,7.52-4.56,11.72-5.88,4.62-1.45,9.44-2.16,14.28-2.12,5.39,0,9.82.95,13.29,2.86,3.33,1.77,6.09,4.46,7.93,7.76,1.86,3.38,3.14,7.05,3.8,10.86.71,3.96,1.07,7.98,1.07,12l-.03,53.56Z"/>
    <path class="cls-1" d="M239.56,182.55v-30.54h3.87v30.54h-3.87Z"/>
    <path class="cls-1" d="M256.34,159.15v23.4h-3.87v-30.54h3.27l18.67,23.88v-23.84h3.87v30.5h-3.52l-18.42-23.4Z"/>
    <path class="cls-1" d="M309.35,155.45h-10.54v27.1h-3.87v-27.1h-10.55v-3.44h25l-.04,3.44Z"/>
    <path class="cls-1" d="M336.2,179.11v3.44h-20.74v-30.54h20.35v3.44h-16.48v9.89h14.33v3.27h-14.33v10.5h16.87Z"/>
    <path class="cls-1" d="M343.21,182.55v-30.54h13.08c1.28-.02,2.55.27,3.7.83,1.11.55,2.11,1.31,2.93,2.24.83.92,1.48,1.99,1.93,3.14.45,1.13.69,2.33.69,3.55,0,1.37-.26,2.73-.79,4-.5,1.23-1.27,2.33-2.24,3.23-.96.89-2.12,1.52-3.38,1.85l7.4,11.7h-4.39l-7-11h-8.06v11h-3.87ZM347.08,168.14h9.25c1,.02,1.98-.29,2.78-.88.81-.61,1.45-1.42,1.85-2.35.45-.98.68-2.06.67-3.14.01-1.1-.26-2.19-.78-3.16-.47-.92-1.16-1.71-2-2.3-.8-.57-1.77-.87-2.75-.86h-9l-.02,12.69Z"/>
    <path class="cls-1" d="M377.08,159.15v23.4h-3.87v-30.54h3.27l18.68,23.88v-23.84h3.87v30.5h-3.53l-18.42-23.4Z"/>
    <path class="cls-1" d="M417.35,152.01h3.27l12.46,30.54h-4.14l-3.4-8.94h-13.14l-3.44,8.95h-4.13l12.52-30.55ZM424.35,170.59l-5.41-14.11-5.38,14.13,10.79-.02Z"/>
    <path class="cls-1" d="M458.08,155.45h-10.57v27.1h-3.87v-27.1h-10.56v-3.44h25v3.44Z"/>
    <path class="cls-1" d="M464.16,182.55v-30.54h3.92v30.54h-3.92Z"/>
    <path class="cls-1" d="M489.46,182.77c-2.02.03-4.03-.41-5.85-1.29-1.74-.85-3.28-2.04-4.54-3.51-2.57-2.97-3.99-6.76-4-10.69,0-2,.37-3.97,1.1-5.83.69-1.83,1.71-3.53,3-5,1.29-1.43,2.84-2.6,4.58-3.44,1.79-.86,3.75-1.29,5.73-1.27,2.03-.03,4.03.43,5.85,1.33,1.73.88,3.27,2.09,4.52,3.58,1.26,1.49,2.24,3.18,2.92,5,1.41,3.69,1.41,7.77,0,11.46-.69,1.84-1.7,3.53-3,5-1.29,1.43-2.85,2.6-4.59,3.42-1.79.84-3.74,1.26-5.72,1.24ZM479.01,167.28c0,1.53.25,3.05.75,4.5.47,1.4,1.2,2.7,2.13,3.85.9,1.11,2.03,2.02,3.31,2.66,2.74,1.35,5.95,1.35,8.69,0,1.28-.68,2.4-1.61,3.29-2.75.91-1.16,1.61-2.47,2.07-3.87.46-1.4.7-2.87.71-4.35,0-1.52-.25-3.03-.75-4.47-.49-1.4-1.21-2.71-2.15-3.86-.91-1.11-2.04-2.02-3.32-2.66-1.31-.67-2.77-1.01-4.24-1-1.52-.03-3.03.32-4.39,1-1.28.66-2.4,1.6-3.29,2.73-.91,1.16-1.61,2.46-2.08,3.85-.49,1.41-.73,2.88-.73,4.37Z"/>
    <path class="cls-1" d="M514.85,159.15v23.4h-3.88v-30.54h3.27l18.68,23.88v-23.84h3.87v30.5h-3.53l-18.41-23.4Z"/>
    <path class="cls-1" d="M555.08,152.01h3.27l12.48,30.54h-4.13l-3.39-8.94h-13.14l-3.44,8.95h-4.13l12.48-30.55ZM562.08,170.59l-5.4-14.11-5.35,14.13,10.75-.02Z"/>
    <path class="cls-1" d="M576.68,182.55v-30.54h3.87v27.1h17v3.44h-20.87Z"/>
    <path class="cls-1" d="M632.78,158.42c-.4-.45-.86-.85-1.37-1.17-.62-.39-1.27-.72-1.94-1-.76-.31-1.54-.55-2.34-.73-.87-.19-1.76-.28-2.65-.28-1.84-.14-3.67.33-5.21,1.33-1.11.88-1.73,2.24-1.67,3.65-.05.94.25,1.86.86,2.57.73.73,1.64,1.26,2.64,1.55,1.19.4,2.71.81,4.54,1.24,1.88.39,3.73.95,5.51,1.67,1.4.55,2.63,1.46,3.57,2.64.89,1.29,1.33,2.84,1.25,4.4.03,1.31-.26,2.61-.84,3.79-.55,1.07-1.36,1.98-2.35,2.66-1.07.73-2.26,1.26-3.52,1.55-1.44.33-2.91.5-4.39.49-1.53,0-3.05-.17-4.54-.5-1.45-.32-2.86-.8-4.2-1.44-1.32-.64-2.57-1.43-3.7-2.36l1.85-3.27c.55.53,1.15,1,1.8,1.4,1.7,1.08,3.57,1.85,5.53,2.28,1.1.24,2.22.36,3.35.36,1.78.12,3.56-.28,5.12-1.14,1.18-.74,1.87-2.06,1.81-3.45.05-1.01-.31-2-1-2.75-.86-.79-1.88-1.37-3-1.71-1.33-.46-2.94-.92-4.82-1.38-1.78-.41-3.52-.98-5.21-1.69-1.26-.5-2.35-1.34-3.16-2.42-.75-1.16-1.12-2.53-1.06-3.91-.05-1.75.44-3.48,1.42-4.93.99-1.35,2.35-2.4,3.92-3,1.8-.7,3.71-1.04,5.64-1,1.3-.01,2.59.13,3.85.43,1.15.28,2.27.68,3.33,1.2,1.01.51,1.97,1.13,2.84,1.86l-1.86,3.06Z"/>
    <path class="cls-1" d="M664.8,155.45h-10.55v27.1h-3.87v-27.1h-10.54v-3.44h25l-.04,3.44Z"/>
    <path class="cls-1" d="M683.51,182.77c-2.12.07-4.23-.37-6.15-1.27-1.6-.79-2.98-1.98-4-3.44-1.03-1.49-1.77-3.17-2.2-4.93-.46-1.86-.69-3.77-.68-5.68v-15.44h3.87v15.44c0,1.47.15,2.93.45,4.37.28,1.34.78,2.62,1.48,3.79.69,1.12,1.65,2.03,2.8,2.66,2.79,1.33,6.03,1.33,8.82,0,1.15-.64,2.12-1.58,2.8-2.71.71-1.18,1.21-2.47,1.48-3.81.3-1.41.46-2.85.46-4.3v-15.44h3.87v15.44c0,1.98-.23,3.96-.71,5.88-.44,1.76-1.2,3.41-2.26,4.88-1.05,1.42-2.42,2.56-4,3.33-1.89.87-3.95,1.29-6.03,1.23Z"/>
    <path class="cls-1" d="M705.08,182.55v-30.54h10.59c2.86-.12,5.7.58,8.19,2,2.15,1.31,3.87,3.23,4.93,5.51,1.11,2.41,1.67,5.03,1.64,7.68.06,2.8-.56,5.58-1.81,8.09-1.16,2.23-2.93,4.09-5.12,5.33-2.4,1.31-5.1,1.96-7.83,1.89l-10.59.04ZM726.51,167.24c.04-2.11-.39-4.19-1.27-6.11-.79-1.72-2.07-3.18-3.68-4.18-1.78-1.05-3.82-1.57-5.89-1.5h-6.71v23.66h6.71c2.09.07,4.16-.47,5.94-1.57,1.6-1.04,2.87-2.52,3.65-4.26.86-1.9,1.3-3.96,1.28-6.04h-.03Z"/>
    <path class="cls-1" d="M737.64,182.55v-30.54h3.87v30.54h-3.87Z"/>
    <path class="cls-1" d="M771.29,179.11v3.44h-20.74v-30.54h20.35v3.44h-16.48v9.89h14.33v3.27h-14.33v10.5h16.87Z"/>
    <path class="cls-1" d="M796.24,158.42c-.4-.45-.86-.85-1.37-1.17-.62-.39-1.27-.72-1.94-1-.76-.31-1.54-.55-2.34-.73-.87-.19-1.76-.28-2.65-.28-1.84-.14-3.67.33-5.21,1.33-1.1.88-1.72,2.23-1.65,3.64-.05.94.25,1.86.86,2.57.73.73,1.64,1.26,2.64,1.55,1.19.4,2.71.81,4.54,1.24,1.88.39,3.73.95,5.51,1.67,1.4.55,2.63,1.46,3.57,2.64.89,1.29,1.33,2.84,1.25,4.4.03,1.31-.26,2.61-.84,3.79-.55,1.07-1.36,1.98-2.35,2.66-1.07.73-2.26,1.26-3.52,1.55-1.44.33-2.91.5-4.39.49-1.53,0-3.05-.17-4.54-.5-1.45-.32-2.86-.8-4.2-1.44-1.32-.64-2.57-1.43-3.7-2.36l1.85-3.27c.54.54,1.14,1.03,1.79,1.44,1.7,1.08,3.57,1.85,5.53,2.28,1.1.24,2.22.36,3.35.36,1.77.1,3.53-.3,5.08-1.17,1.18-.74,1.87-2.06,1.81-3.45.05-1.01-.31-2-1-2.75-.86-.78-1.89-1.37-3-1.71-1.33-.46-2.94-.92-4.82-1.38-1.78-.41-3.52-.98-5.21-1.69-1.28-.49-2.39-1.33-3.21-2.42-.75-1.16-1.12-2.53-1.06-3.91-.05-1.75.44-3.48,1.42-4.93.99-1.35,2.35-2.4,3.92-3,1.8-.7,3.71-1.04,5.64-1,1.3-.01,2.59.13,3.85.43,1.15.28,2.27.68,3.33,1.2,1.01.51,1.97,1.13,2.84,1.86l-1.78,3.06Z"/>
    <path class="cls-1" d="M46.99,87.41c0-14,.14-28.01-.09-42.01-.06-3.79,1.13-4.72,4.72-4.54,6.51.28,13.06.29,19.58,0,3.7-.17,4.91.79,4.87,4.72-.19,27.31-.13,54.63-.08,81.94,0,11.86,6.57,21.72,16.94,25.83,17.99,7.14,37.01-5.88,37.09-25.6.12-27.3.09-54.61-.08-81.94,0-4.15,1.22-5.51,5.13-4.86.69.11,1.39.11,2.08,0,3.35-.5,4.64.64,4.5,4.25-.28,7.34-.09,14.69-.09,22.05,0,19.68.06,39.37,0,59.05-.06,15.26-6.03,27.46-19.49,35.32-25.2,14.71-57.39-3.64-57.56-32.77-.13-24.68,0-49.36,0-74.01,0-1.89.5-3.94-2.7-3.94-2.42,0-3.4.53-3.39,3.2.09,25.37-.28,50.75.17,76.12.41,22.88,19.53,41.51,42.58,42.45,23.09,1.11,43.11-15.82,45.86-38.77.34-2.75.52-5.51.54-8.28.04-26.62.09-53.24-.06-79.86,0-3.68.79-5.08,4.72-4.88,6.82.34,6.83.08,6.83,6.91,0,26.2.05,52.42,0,78.62,0,9.66-1.8,18.96-6.38,27.64-14.18,27.42-47.91,38.16-75.34,23.98-1.84-.95-3.63-2.01-5.35-3.16-16.54-11.09-24.67-26.94-24.98-46.69-.21-13.59-.04-27.18-.04-40.77Z"/>
    <circle class="cls-2" cx="103" cy="103" r="100"/>
  </g>
</svg>